<?xml version="1.0" encoding="UTF-8" standalone="no"?><!DOCTYPE svg PUBLIC "-//W3C//DTD SVG 1.1//EN" "http://www.w3.org/Graphics/SVG/1.1/DTD/svg11.dtd"><svg width="100%" height="100%" viewBox="0 0 2250 2250" version="1.1" xmlns="http://www.w3.org/2000/svg" xmlns:xlink="http://www.w3.org/1999/xlink" xml:space="preserve" xmlns:serif="http://www.serif.com/" style="fill-rule:evenodd;clip-rule:evenodd;stroke-linejoin:round;stroke-miterlimit:2;"><g><path d="M962.512,1085.8l-38.103,43l-166.443,63.248l79.592,-102.745l-166.142,32.839c0,-0 133.606,-300.186 106.524,-359.518l-40.097,34.409l73.385,-380.61c0,-0 33.698,-50.661 143.278,-121.584c51.132,-33.094 83.306,-73.392 202.924,-84.695c209.458,-19.791 283.734,84.941 283.734,84.941c0,0 181.382,138.746 149.284,301.096c-21.943,110.993 13.873,357.853 13.873,357.853l16.325,93.575l-103.699,-93.575l-13.645,65.48l15.31,102.628l44.94,109.852l-103.196,-109.852l-36.617,-53.262l-461.227,16.92Z" style="fill:#fff;"/><path d="M1516.95,369.822c-150.544,-176.296 -328.086,-208.476 -532.617,-96.537c-59.381,41.597 -114.86,88.201 -166.443,139.812c7.682,6.084 6.57,11.632 -3.33,16.645c-1.111,-4.439 -2.216,-8.877 -3.329,-13.316c79.52,-107.152 183.827,-179.278 312.914,-216.376c166.929,-22.985 297.859,33.605 392.805,169.772Z" style="fill:#b02b38;"/><path d="M1137.46,316.56c-0,-4.438 -2.218,-6.658 -6.659,-6.658c20.334,-11.148 42.53,-14.476 66.578,-9.986c-19.8,6.611 -39.774,12.159 -59.919,16.644Z" style="fill:#d5898e;"/><path d="M1130.8,309.902c4.441,0 6.658,2.22 6.658,6.658c-108.827,27.725 -197.595,85.425 -266.31,173.101c-5.758,7.208 -12.416,8.319 -19.972,3.329c63.195,-105.997 156.403,-167.026 279.624,-183.088Z" style="fill:#ac242e;"/><path d="M1516.95,369.822c11.731,5.075 18.389,13.952 19.974,26.631c-11.731,-5.075 -18.389,-13.952 -19.974,-26.631Z" style="fill:#d07a84;"/><path d="M1536.92,396.453c13.9,12.22 22.776,27.755 26.631,46.604c-13.902,-12.221 -22.777,-27.756 -26.631,-46.604Z" style="fill:#cd737d;"/><path d="M491.658,502.976c-17.757,11.097 -35.506,22.192 -53.262,33.289c13.162,-15.405 26.478,-30.94 39.946,-46.604c6.804,2.367 11.245,6.806 13.316,13.315Z" style="fill:#b83b44;"/><path d="M491.658,502.976l-0,33.289c-19.767,16.591 -39.74,33.235 -59.919,49.933c28.814,1.173 48.787,-11.032 59.919,-36.617c-0.872,4.919 0.239,9.357 3.328,13.315c37.257,-14.133 74.98,-27.449 113.181,-39.946c5.094,0.465 8.423,2.684 9.987,6.657c-9.181,19.214 -22.497,35.858 -39.946,49.934c-26.631,13.315 -53.262,26.631 -79.893,39.946c-23.528,25.758 -49.047,49.059 -76.563,69.906c-0.101,19.693 8.781,35.232 26.631,46.604c2.549,-3.702 5.878,-5.918 9.986,-6.657c17.836,13.987 36.697,27.302 56.591,39.946c5.259,-46.838 18.575,-91.224 39.947,-133.155c17.276,-10.499 36.144,-17.157 56.59,-19.974c-4.441,22.194 -8.876,44.386 -13.315,66.578c-8.609,8.934 -14.155,20.034 -16.646,33.289c-3.175,38.981 -10.937,76.71 -23.301,113.181c-31.564,-27.423 -63.741,-54.054 -96.537,-79.893c12.683,33.935 17.117,69.44 13.316,106.524c-28.862,34.327 -64.368,56.517 -106.524,66.578c-23.669,264.091 -78.035,521.525 -163.115,772.296c8.589,6.044 17.464,4.933 26.631,-3.33c29.907,-29.96 52.097,-64.36 66.578,-103.194c1.564,3.975 4.893,6.191 9.987,6.657c81.956,-29.088 165.177,-53.494 249.664,-73.235c16.977,0.406 26.963,9.281 29.96,26.631c24.367,71.923 43.228,145.159 56.59,219.705c-173.753,65.911 -352.4,114.74 -535.947,146.471c-17.243,0.825 -32.778,-3.609 -46.603,-13.316c-32.222,-48.834 -51.085,-102.096 -56.591,-159.786c39.589,-163.253 86.194,-325.256 139.812,-486.013c41.154,-107.982 74.44,-218.946 99.866,-332.886c6.624,-72.044 8.842,-145.279 6.658,-219.705c23.522,-17.976 47.929,-34.62 73.235,-49.934c-3.955,-3.091 -8.396,-4.2 -13.316,-3.328c12.476,-5.228 25.792,-9.666 39.947,-13.316c2.063,8.244 5.393,8.244 9.986,0c4.408,-15.398 7.736,-30.932 9.986,-46.604c9.089,-15.711 22.403,-26.808 39.947,-33.289c12.676,-1.581 21.557,-8.24 26.631,-19.973c17.756,-11.097 35.505,-22.192 53.262,-33.289Z" style="fill:#fde4be;"/><path d="M491.658,502.976c16.125,10.306 16.125,21.402 -0,33.289l-0,-33.289Z" style="fill:#c45859;"/><path d="M1563.55,443.057c26.231,37.493 42.875,79.658 49.932,126.497c2.217,130.937 4.441,261.868 6.658,392.806c6.771,42.629 13.429,84.793 19.973,126.497c-40.079,-43.402 -78.913,-87.783 -116.51,-133.155c-6.339,10.286 -8.555,21.384 -6.658,33.288c-4.441,26.631 -8.875,53.262 -13.316,79.893c-5.545,-53.182 -6.65,-106.444 -3.328,-159.785c33.288,37.729 66.577,75.452 99.865,113.181c1.113,-5.546 2.218,-11.098 3.33,-16.644c-15.846,-83.581 -24.72,-167.909 -26.631,-252.994c6.038,-83.178 7.15,-166.4 3.329,-249.665c-7.623,-19.519 -13.169,-39.492 -16.644,-59.919Z" style="fill:#b02936;"/><path d="M438.396,536.265c-5.074,11.733 -13.955,18.392 -26.631,19.973c5.073,-11.734 13.954,-18.391 26.631,-19.973Z" style="fill:#c96465;"/><path d="M491.658,536.265l-0,13.316c-11.132,25.585 -31.105,37.79 -59.919,36.617c20.179,-16.698 40.152,-33.342 59.919,-49.933Z" style="fill:#b13034;"/><path d="M804.571,436.399c4.154,2.776 6.372,7.215 6.657,13.315c-15.439,74.71 -25.426,150.164 -29.959,226.364c-10.226,48.421 -25.759,95.025 -46.604,139.812c14.307,-83.362 25.406,-167.691 33.288,-252.994c10.213,-42.839 22.423,-85.004 36.618,-126.497Z" style="fill:#af2634;"/><path d="M458.369,729.34c-4.108,0.739 -7.437,2.955 -9.986,6.657c-17.85,-11.372 -26.732,-26.911 -26.631,-46.604c27.516,-20.847 53.035,-44.148 76.563,-69.906l79.893,-39.946c17.449,-14.076 30.765,-30.72 39.946,-49.934c2.863,22.384 -3.794,41.248 -19.972,56.591c7.203,8.853 11.644,18.839 13.315,29.959c-20.446,2.817 -39.314,9.475 -56.59,19.974c-21.372,41.931 -34.688,86.317 -39.947,133.155c-19.894,-12.644 -38.755,-25.959 -56.591,-39.946Zm0,-0c16.165,4.74 31.698,11.397 46.604,19.972c14.973,-50.486 31.617,-99.311 49.934,-146.47c-15.967,9.03 -32.611,16.797 -49.934,23.302c-13.275,18.825 -28.814,35.469 -46.604,49.934c-8.815,17.962 -8.815,35.712 0,53.262Z" style="fill:#b12f38;"/><path d="M1243.98,596.185c1.073,20.159 -3.368,39.021 -13.314,56.59c2.236,6.857 6.677,10.186 13.314,9.987l0,19.973c-47.249,-3.385 -92.748,3.276 -136.482,19.974c-4.581,5.538 -3.469,9.973 3.328,13.315c49.314,-17.943 100.358,-24.6 153.128,-19.974c-41.457,6.418 -83.621,14.188 -126.497,23.303c-8.249,14.101 -6.025,26.304 6.658,36.617c-0.872,5.832 1.345,10.273 6.658,13.316c9.859,-6.525 18.741,-14.295 26.631,-23.302c16.238,-3.429 17.343,-0.101 3.329,9.986c-8.742,24.667 -0.973,40.199 23.302,46.604c9.674,8.822 7.449,14.368 -6.658,16.644c19.434,3.676 37.19,-0.765 53.262,-13.315c6.331,-4.781 7.436,-10.327 3.328,-16.644c-5.432,8.808 -13.201,13.242 -23.301,13.315c-0.074,-10.1 -4.508,-17.869 -13.316,-23.302c6.983,-3.275 13.642,-2.17 19.973,3.329c8.302,-10.026 8.302,-20.013 0,-29.96c10.879,-3.289 21.977,-4.394 33.288,-3.329c18.456,-0.632 31.771,-9.513 39.947,-26.631c-9.401,-8.695 -20.499,-14.247 -33.288,-16.644c13.135,-3.296 26.45,-4.407 39.946,-3.328c15.353,3.282 30.885,5.498 46.604,6.657l-0,-19.973c-8.595,1.577 -15.253,-0.639 -19.973,-6.658l26.631,-0l-0,53.262c-8.569,77.529 -3.023,155.204 16.644,233.02c3.089,-3.955 4.201,-8.396 3.329,-13.315c4.047,33.821 12.922,67.11 26.631,99.865c-15.666,15.712 -28.982,33.469 -39.947,53.262c-41.264,60.113 -96.743,101.165 -166.443,123.168c52.663,47.158 103.708,94.866 153.128,143.141c-111.138,40.187 -219.878,34.634 -326.228,-16.644c-16.379,-9.707 -30.806,-21.911 -43.276,-36.617c0.64,-23.083 6.192,-45.273 16.645,-66.577c6.85,-13.43 13.508,-26.744 19.973,-39.947c21.058,11.625 43.248,21.611 66.577,29.96c19.973,4.441 39.946,4.441 59.919,-0c-75.864,-11.432 -136.896,-48.049 -183.087,-109.853c-85.931,-103.807 -129.206,-223.646 -129.825,-359.517c6.657,2.217 11.098,6.658 13.314,13.316c2.278,5.579 6.711,7.803 13.316,6.657c4.441,6.658 8.875,13.315 13.315,19.974c-8.481,4.587 -8.481,10.139 0,16.644c14.494,8.002 30.034,11.331 46.605,9.987c32.709,-3.875 52.682,-21.632 59.919,-53.262l0,-6.658c2.39,-15.086 -2.051,-27.291 -13.315,-36.617c-46.198,-6.884 -90.578,-1.338 -133.154,16.644c-2.557,-30.026 -6.998,-58.875 -13.316,-86.55c-2.064,-21.392 0.153,-41.366 6.658,-59.921l-0,46.605c39.986,-4.813 79.933,-10.361 119.839,-16.644c3.329,-3.33 6.657,-6.658 9.986,-9.987c64.953,7.666 130.419,8.776 196.403,3.329c27.876,-12.816 54.507,-27.241 79.892,-43.275Z" style="fill:#fde4bf;"/><path d="M1348.34,714.793l22.138,-1.034l-0.005,22.28l-23.945,14.558l1.812,-35.804Z" style="fill:#05293d;"/><path d="M1243.98,596.185c-25.385,16.034 -52.016,30.459 -79.892,43.275c-65.984,5.447 -131.45,4.337 -196.403,-3.329c-3.329,3.329 -6.657,6.657 -9.986,9.987c-39.906,6.283 -79.853,11.831 -119.839,16.644l-0,-46.605c18.768,2.456 37.629,4.675 56.59,6.659c86.457,-16.982 173.008,-16.982 259.652,-0c9.986,-2.22 19.972,-4.439 29.959,-6.659c18.862,-24.411 37.729,-48.823 56.591,-73.234c3.309,17.616 4.421,35.37 3.328,53.262Z" style="fill:#a91828;"/><path d="M371.818,589.527c-2.25,15.672 -5.578,31.206 -9.986,46.604c-4.593,8.244 -7.923,8.244 -9.986,0c1.378,-18.247 8.035,-33.78 19.972,-46.604Z" style="fill:#b83d44;"/><path d="M311.899,649.447c4.92,-0.872 9.361,0.237 13.316,3.328c-25.306,15.314 -49.713,31.958 -73.235,49.934c15.845,-22.511 35.818,-40.261 59.919,-53.262Z" style="fill:#b93f47;"/><path d="M1257.3,669.419c28.562,6.156 57.417,10.593 86.551,13.316c4.72,6.019 11.378,8.235 19.973,6.658l-0,19.973c-15.719,-1.159 -31.251,-3.375 -46.604,-6.657c-7.111,-6.219 -15.985,-8.443 -26.631,-6.659c-9.667,-5.339 -20.759,-8.668 -33.289,-9.986c-8.481,-6.505 -8.481,-12.054 -0,-16.645Z" style="fill:#a81526;"/><path d="M1243.98,662.762c6.605,-1.143 11.039,1.078 13.316,6.657c-8.481,4.591 -8.481,10.14 -0,16.645c12.53,1.318 23.622,4.647 33.289,9.986l-26.631,0c-52.77,-4.626 -103.814,2.031 -153.128,19.974c-6.797,-3.342 -7.909,-7.777 -3.328,-13.315c43.734,-16.698 89.233,-23.359 136.482,-19.974l0,-19.973Z" style="fill:#c65c55;"/><path d="M1263.95,696.05l26.631,0c10.646,-1.784 19.52,0.44 26.631,6.659c-13.496,-1.079 -26.811,0.032 -39.947,3.328c12.79,2.397 23.888,7.949 33.289,16.644c-8.176,17.118 -21.491,25.999 -39.947,26.631c-43.468,-19.846 -85.638,-17.63 -126.497,6.658c-12.682,-10.313 -14.906,-22.516 -6.657,-36.617c42.876,-9.115 85.039,-16.885 126.497,-23.303Z" style="fill:#d69486;"/><path d="M884.463,709.366c24.514,-1.099 48.921,0.007 73.236,3.328c7.482,1.659 14.141,4.987 19.972,9.987c-37.656,0.04 -75.385,2.258 -113.181,6.659c-2.217,-1.113 -4.441,-2.218 -6.658,-3.33c9.042,-6.218 17.923,-11.771 26.631,-16.644Z" style="fill:#b6393c;"/><path d="M784.597,782.601c1.579,-8.595 -0.639,-15.253 -6.657,-19.973c-1.458,-7.823 0.759,-14.481 6.657,-19.973c8.609,14.22 8.609,27.536 0,39.946Z" style="fill:#cd737e;"/><path d="M990.987,782.601c-45.639,-19.334 -90.019,-17.111 -133.155,6.658c-2.216,-6.658 -6.657,-11.099 -13.314,-13.316l-0,-13.315c42.576,-17.982 86.956,-23.528 133.153,-16.644c11.265,9.326 15.706,21.531 13.316,36.617Z" style="fill:#d59486;"/><path d="M1270.61,749.312c-11.311,-1.065 -22.409,0.04 -33.288,3.329c8.302,9.947 8.302,19.934 -0,29.96c-6.332,-5.499 -12.99,-6.604 -19.973,-3.329c8.808,5.433 13.242,13.202 13.315,23.302l-26.631,0c-24.274,-6.405 -32.044,-21.937 -23.302,-46.604c14.015,-10.087 12.91,-13.415 -3.329,-9.986c-7.889,9.007 -16.771,16.777 -26.63,23.302c-5.313,-3.043 -7.531,-7.484 -6.659,-13.316c40.859,-24.288 83.029,-26.504 126.497,-6.658Z" style="fill:#a91528;"/><path d="M251.98,702.709c2.184,74.426 -0.034,147.661 -6.658,219.705c2.177,-67.783 -0.04,-134.36 -6.658,-199.733c2.876,-8.055 7.317,-14.713 13.316,-19.972Z" style="fill:#ecb79e;"/><path d="M598.182,682.735c-4.035,62.203 -9.581,124.34 -16.646,186.417c-5.878,17.323 -15.864,31.751 -29.959,43.275c-47.863,31.151 -91.138,67.769 -129.825,109.852c-10.187,23.901 -19.068,48.315 -26.631,73.235c-31.725,164.179 -63.908,328.406 -96.537,492.672c-14.481,38.834 -36.671,73.234 -66.578,103.194c-9.167,8.263 -18.042,9.374 -26.631,3.33c85.08,-250.771 139.446,-508.205 163.115,-772.296c42.156,-10.061 77.662,-32.251 106.524,-66.578c3.801,-37.084 -0.633,-72.589 -13.316,-106.524c32.796,25.839 64.973,52.47 96.537,79.893c12.364,-36.471 20.126,-74.2 23.301,-113.181c2.491,-13.255 8.037,-24.355 16.646,-33.289Z" style="fill:#a91529;"/><path d="M990.987,782.601l-0,6.658c-14.72,3.109 -28.036,9.766 -39.947,19.972c10.167,12.185 6.838,18.842 -9.985,19.974c-26.113,-4.268 -36.1,-19.807 -29.961,-46.604c-14.666,0.692 -27.982,5.127 -39.947,13.315c-6.604,1.146 -11.038,-1.078 -13.315,-6.657c43.136,-23.769 87.516,-25.992 133.155,-6.658Z" style="fill:#aa182a;"/><path d="M1370.48,735.997c2.816,73.594 9.473,146.83 19.972,219.705c0.872,4.919 -0.239,9.36 -3.328,13.315c-19.667,-77.816 -25.213,-155.491 -16.644,-233.02Z" style="fill:#c35459;"/><path d="M351.846,782.601c22.069,4.368 39.826,15.466 53.262,33.289c-15.367,23.135 -32.011,45.325 -49.934,66.577c-3.322,-33.215 -4.433,-66.505 -3.328,-99.866Z" style="fill:#aa1b2a;"/><path d="M990.987,789.259c-7.237,31.63 -27.21,49.387 -59.919,53.262c-16.405,-7.105 -31.938,-15.979 -46.605,-26.631c-4.44,-6.659 -8.875,-13.316 -13.316,-19.974c11.965,-8.188 25.281,-12.623 39.947,-13.315c-6.139,26.797 3.848,42.336 29.961,46.604c16.823,-1.132 20.152,-7.789 9.985,-19.974c11.911,-10.206 25.227,-16.863 39.947,-19.972Z" style="fill:#fbebdc;"/><path d="M1204.04,802.574l26.631,0c10.099,-0.073 17.869,-4.507 23.301,-13.315c4.108,6.317 3.003,11.863 -3.329,16.644c-16.071,12.55 -33.828,16.991 -53.262,13.315c14.108,-2.276 16.332,-7.822 6.659,-16.644Z" style="fill:#ce706b;"/><path d="M884.463,815.89c14.667,10.652 30.2,19.526 46.605,26.631c-16.572,1.344 -32.111,-1.985 -46.605,-9.987c-8.481,-6.505 -8.481,-12.057 -0,-16.644Z" style="fill:#c75e5b;"/><path d="M1057.56,742.655c42.516,44.24 63.595,97.502 63.249,159.785c-12.178,-11.026 -21.059,-24.341 -26.631,-39.947c-6.112,-42.289 -18.316,-82.235 -36.618,-119.838Z" style="fill:#d99c8c;"/><path d="M1090.85,949.045l39.947,-0l-0,26.63c-19.354,-0.499 -37.103,-6.052 -53.262,-16.645c6.098,-1.85 10.533,-5.179 13.315,-9.985Z" style="fill:#d59587;"/><path d="M238.664,722.681c6.618,65.373 8.835,131.95 6.658,199.733c-25.426,113.94 -58.712,224.904 -99.866,332.886c0,-4.441 -2.219,-6.659 -6.658,-6.659c33.282,-96.523 63.241,-194.172 89.88,-292.939c8.442,-77.437 11.77,-155.105 9.986,-233.021Z" style="fill:#b93f49;"/><path d="M1037.59,962.36c38.827,-2.277 41.051,8.814 6.657,33.288c-14.674,-8.535 -16.897,-19.633 -6.657,-33.288Z" style="fill:#d79789;"/><path d="M1190.72,1048.91c-13.628,32.463 -38.042,51.324 -73.236,56.591c-19.972,4.441 -39.946,4.441 -59.919,-0c-5.379,-2.051 -9.82,-5.38 -13.315,-9.987c41.784,-9.487 81.73,-22.803 119.839,-39.947c8.875,-2.216 17.756,-4.44 26.631,-6.657Z" style="fill:#fbf6f4;"/><path d="M1164.09,1055.57c-38.109,17.143 -78.055,30.459 -119.839,39.946c3.495,4.608 7.936,7.936 13.315,9.987c19.973,4.441 39.947,4.441 59.919,-0c35.194,-5.267 59.607,-24.128 73.236,-56.591c8.814,-8.988 15.472,-7.876 19.973,3.329c-21.957,67.616 -68.561,96.464 -139.812,86.55c-20.479,-6.065 -36.012,-18.269 -46.604,-36.617c8.308,-13.042 19.406,-23.029 33.288,-29.959c35.273,-7.683 70.778,-13.229 106.524,-16.645Z" style="fill:#d79889;"/><path d="M831.202,1095.51c-1.066,11.005 -5.499,19.88 -13.315,26.631c-0,-8.875 -4.441,-13.316 -13.316,-13.316c6.751,-7.816 15.626,-12.249 26.631,-13.315Z" style="fill:#e1a6ae;"/><path d="M1516.95,988.99c-2.177,53.935 2.257,107.197 13.316,159.786c-14.654,-24.061 -23.528,-50.692 -26.631,-79.893c4.441,-26.631 8.874,-53.262 13.315,-79.893Z" style="fill:#d5858e;"/><path d="M777.94,762.628c6.018,4.72 8.236,11.378 6.657,19.973c3.529,126.996 -34.194,240.177 -113.181,339.544c52.256,-8.622 105.518,-21.937 159.786,-39.947c8.475,5.04 8.475,9.475 0,13.316c-11.005,1.066 -19.88,5.499 -26.631,13.315c-54.714,17.576 -110.192,29.781 -166.443,36.618c73.588,-117.562 120.192,-245.164 139.812,-382.819Z" style="fill:#ae2634;"/><path d="M831.202,676.078c6.318,27.675 10.759,56.524 13.316,86.55l-0,13.315c0.618,135.871 43.894,255.71 129.825,359.517c46.191,61.804 107.223,98.421 183.087,109.853c-19.973,4.441 -39.947,4.441 -59.919,-0c-23.329,-8.349 -45.519,-18.335 -66.578,-29.96c-106.676,-95.679 -169.925,-215.517 -189.745,-359.517c-8.102,-59.647 -11.431,-119.566 -9.986,-179.758Z" style="fill:#b02b35;"/><path d="M1377.14,1108.83c10.08,53.635 22.284,106.896 36.618,159.786c1.332,12.117 6.884,20.991 16.644,26.631c2.278,5.579 6.711,7.802 13.316,6.657c-18.229,33.535 -44.86,57.949 -79.893,73.235c-49.42,-48.275 -100.465,-95.984 -153.128,-143.141c69.7,-22.003 125.179,-63.055 166.443,-123.168Z" style="fill:#d59486;"/><path d="M1417.08,1055.57c2.025,4.328 4.241,8.768 6.657,13.315c-15.965,14.181 -24.845,31.938 -26.629,53.262c7.502,55.466 20.818,108.727 39.945,159.786c-5.579,2.276 -7.802,6.711 -6.657,13.315c-9.76,-5.639 -15.313,-14.514 -16.644,-26.631c-14.334,-52.889 -26.539,-106.15 -36.618,-159.786c10.965,-19.793 24.281,-37.549 39.946,-53.261Z" style="fill:#ae2433;"/><path d="M1543.58,1182.06c10.114,16.784 21.212,33.428 33.289,49.933c-4.441,4.441 -8.875,4.441 -13.315,0c-42.31,-31.151 -76.711,-67.769 -103.195,-109.852c26.631,26.631 53.262,53.262 79.893,79.893c3.215,-6.312 4.32,-12.97 3.328,-19.974Z" style="fill:#d07982;"/><path d="M1530.26,1148.78c9.527,8.522 13.968,19.62 13.315,33.288c-9.527,-8.521 -13.968,-19.62 -13.315,-33.288Z" style="fill:#cd747e;"/><path d="M817.887,1122.14c-7.038,16.252 -15.913,31.791 -26.631,46.604c45.598,-5.04 85.544,-25.013 119.838,-59.92c6.092,5.513 10.527,12.171 13.315,19.974c-48.521,38.748 -103.999,59.826 -166.443,63.248c19.075,-24.581 39.049,-47.883 59.921,-69.906Z" style="fill:#ae2535;"/><path d="M1010.96,1255.3c-10.453,21.304 -16.006,43.494 -16.646,66.577c12.47,14.706 26.898,26.91 43.277,36.617c106.35,51.277 215.09,56.831 326.227,16.644c35.034,-15.286 61.665,-39.7 79.893,-73.235c16.857,7.297 32.39,16.172 46.604,26.631c-15.226,24.114 -32.975,46.304 -53.262,66.578c-129.645,81.916 -262.8,87.462 -399.462,16.644c-31.771,-18.456 -59.515,-41.757 -83.223,-69.906c-120.151,62.849 -241.096,122.768 -362.846,179.758c71.598,99.387 107.103,210.345 106.524,332.886l-33.289,0c-0.392,-21.238 -2.616,-42.323 -6.657,-63.247c-0.719,-11.192 -5.16,-18.962 -13.316,-23.303c-13.362,-74.546 -32.223,-147.782 -56.59,-219.705c-2.997,-17.35 -12.983,-26.225 -29.96,-26.631c98.58,-49.293 198.447,-99.226 299.597,-149.799c55.899,-32.609 106.937,-71.45 153.129,-116.509Z" style="fill:#ec813c;"/><path d="M1437.06,1281.93c53.696,26.85 106.958,53.481 159.786,79.893c-35.505,-11.1 -71.018,-22.192 -106.524,-33.29c-14.214,-10.459 -29.746,-19.333 -46.603,-26.631c-6.605,1.145 -11.038,-1.078 -13.316,-6.657c-1.145,-6.604 1.079,-11.039 6.657,-13.315Z" style="fill:#e01f28;"/><path d="M1490.31,1328.53c35.505,11.098 71.018,22.19 106.524,33.29c83.334,23.707 163.227,55.884 239.678,96.537c54.267,40.957 104.2,86.45 149.799,136.482c25.579,33.488 51.098,66.778 76.564,99.867c-4.427,14.633 -8.868,30.166 -13.316,46.603c-109.346,-141.284 -249.158,-240.037 -419.437,-296.268c-64.26,-17.357 -128.614,-34.002 -193.074,-49.933c20.287,-20.273 38.036,-42.464 53.262,-66.578Z" style="fill:#a90d27;"/><path d="M1437.06,1395.12c64.461,15.931 128.814,32.576 193.074,49.933c170.279,56.231 310.091,154.985 419.438,296.269c4.447,-16.438 8.888,-31.971 13.315,-46.604c6.265,10.319 10.699,21.411 13.316,33.288c1.784,10.646 -0.44,19.52 -6.659,26.631c-99.659,86.271 -208.4,159.505 -326.227,219.705c-63.975,15.386 -123.895,39.794 -179.759,73.235l-679.089,-0c-63.274,-64.374 -129.851,-125.405 -199.731,-183.087c6.098,-1.851 10.532,-5.18 13.315,-9.987c0.579,-122.542 -34.926,-233.499 -106.523,-332.886c121.749,-56.991 242.694,-116.91 362.845,-179.759c23.709,28.149 51.452,51.451 83.223,69.906c136.663,70.818 269.817,65.272 399.462,-16.644Z" style="fill:#e2021a;"/><path d="M138.798,1248.64c4.439,-0 6.658,2.217 6.658,6.658c-53.618,160.757 -100.223,322.76 -139.812,486.014c18.595,-171.184 62.979,-335.41 133.154,-492.672Z" style="fill:#af2734;"/><path d="M1503.63,1761.28c6.518,-20.805 8.741,-42.995 6.658,-66.576l39.946,-0c-2.084,23.581 0.139,45.771 6.657,66.576c5.833,-0.872 10.273,1.345 13.316,6.658c-73.235,8.875 -146.47,8.875 -219.705,0c12.19,-24.907 16.624,-51.537 13.315,-79.893l46.605,0l0,73.235l26.63,-0c3.31,-28.355 -1.125,-54.986 -13.315,-79.892c19.321,-13.122 25.979,-29.767 19.973,-49.933c9.407,-21.864 18.283,-21.864 26.631,-0c-0.965,5.14 -3.182,9.581 -6.658,13.315c12.743,9.407 21.619,21.618 26.631,36.618c-6.211,26.158 -8.429,52.789 -6.657,79.892l19.973,-0Z" style="fill:#fef2f1;"/><rect x="1377.14" y="1654.76" width="19.973" height="19.973" style="fill:#fdf1ef;"/><rect x="1516.95" y="1654.76" width="26.631" height="19.973" style="fill:#fcdcd8;"/><path d="M1556.9,1761.28c-6.518,-20.805 -8.742,-42.995 -6.658,-66.576l-39.946,-0c2.083,23.581 -0.14,45.771 -6.658,66.576l-0,-73.235l53.262,0l-0,73.235Z" style="fill:#f18c88;"/><path d="M2076.2,1728c6.478,16.298 8.695,34.055 6.657,53.262c-5.625,-7.796 -10.06,-16.678 -13.316,-26.631c6.219,-7.111 8.443,-15.985 6.659,-26.631Z" style="fill:#eb7377;"/><path d="M2069.54,1754.63c3.256,9.953 7.691,18.835 13.316,26.631c5.579,2.276 7.803,6.711 6.658,13.315c39.633,88.149 86.237,172.475 139.812,252.994l-399.464,-0c-30.086,-22.829 -58.934,-47.243 -86.55,-73.235c117.828,-60.2 226.569,-133.434 326.228,-219.705Z" style="fill:#fde5bf;"/><path d="M5.644,1741.31c5.506,57.69 24.369,110.952 56.591,159.786c13.825,9.707 29.36,14.141 46.603,13.316c183.547,-31.731 362.194,-80.56 535.947,-146.471c8.156,4.341 12.597,12.111 13.316,23.303c4.041,20.925 6.265,42.01 6.657,63.248l33.289,-0c-2.783,4.806 -7.217,8.136 -13.315,9.986c69.879,57.683 136.457,118.714 199.731,183.088c-53.833,2.004 -107.095,-0.22 -159.785,-6.658c-11.518,-57.855 -30.379,-113.335 -56.59,-166.443c-5.946,-3.868 -12.604,-6.092 -19.974,-6.658c-168.281,44.307 -339.164,73.162 -512.645,86.55c-64.997,4.142 -107.163,-24.707 -126.496,-86.55c-10.726,-42.968 -11.836,-85.132 -3.329,-126.497Z" style="fill:#a91429;"/><path d="M1556.9,1794.58l-193.074,-0c1.784,10.645 -0.44,19.52 -6.658,26.631l0,-33.29c67.782,-2.176 134.359,0.04 199.732,6.659Z" style="fill:#f8beb7;"/><path d="M1556.9,1794.58c5.252,33.528 11.911,66.816 19.973,99.865c-27.523,6.558 -56.377,8.776 -86.551,6.658c1.093,-17.889 -0.02,-35.645 -3.328,-53.261c-19.028,-25.999 -36.784,-25.999 -53.262,-0c-3.309,17.616 -4.421,35.372 -3.329,53.261c-32.376,2.124 -63.448,-0.093 -93.208,-6.658c8.01,-24.034 14.667,-48.448 19.973,-73.234c6.218,-7.111 8.442,-15.986 6.658,-26.631l193.074,-0Z" style="fill:#fefcfb;"/><path d="M2089.52,1794.58c48.948,85.611 102.21,168.833 159.785,249.664c-6.311,3.216 -12.969,4.321 -19.973,3.329c-53.575,-80.518 -100.179,-164.845 -139.812,-252.993Z" style="fill:#b3313a;"/><path d="M1337.19,1894.44c29.76,6.564 60.832,8.782 93.208,6.658c-32.277,8.748 -65.565,8.748 -99.866,0c0.826,-4.041 3.042,-6.259 6.658,-6.658Z" style="fill:#f18988;"/><path d="M1576.87,1894.44c3.615,0.399 5.832,2.617 6.657,6.658c-32.076,8.734 -63.148,8.734 -93.208,0c30.174,2.117 59.028,-0.1 86.551,-6.658Z" style="fill:#f28f8d;"/><path d="M1743.31,1974.34c27.616,25.992 56.464,50.406 86.55,73.235c-17.889,1.092 -35.645,-0.02 -53.262,-3.329c-22.363,-20.026 -46.776,-36.67 -73.234,-49.933c-10.18,0.193 -17.95,4.634 -23.303,13.315c-6.164,14.595 -13.934,27.91 -23.302,39.947l-93.207,-0c55.864,-33.441 115.784,-57.849 179.758,-73.235Z" style="fill:#ab152a;"/><path d="M724.678,2040.91c52.69,6.438 105.952,8.662 159.785,6.657l772.296,0c-154.219,4.441 -309.57,6.659 -466.04,6.659c-157.628,-0 -312.98,-4.441 -466.041,-13.316Z" style="fill:#efa4ae;"/><g><path d="M831.837,764.86c-19.614,9.028 -30.075,27.059 -30.832,45.373c-0.236,5.754 0.26,13.279 1.564,21.58l65.345,-75.778c-15.068,2.119 -28.037,5.121 -36.077,8.825Z" style="fill:#f2f2f2;fill-rule:nonzero;"/><path d="M831.837,764.86c-19.614,9.028 -30.075,27.059 -30.832,45.373c-0.236,5.754 0.26,13.279 1.564,21.58l65.345,-75.778c-15.068,2.119 -28.037,5.121 -36.077,8.825Z" style="fill:#05293d;fill-opacity:0.73;fill-rule:nonzero;"/><path d="M974.077,758.799c-7.59,-2.679 -18.233,-4.436 -30.377,-5.391l-117.729,136.516c1.629,2.02 3.315,3.979 5.126,5.779c9.793,9.719 20.07,16.264 31.212,19.995c14.379,4.827 28.627,5.309 28.627,5.309l20.697,-1.529c-0,0 41.812,-4.664 67.517,-31.739c22.418,-23.616 29.351,-68.185 27.445,-91.201c-0.848,-10.159 -12.373,-30.62 -32.518,-37.739Z" style="fill:#f2f2f2;fill-rule:nonzero;"/><path d="M974.077,758.799c-7.59,-2.679 -18.233,-4.436 -30.377,-5.391l-117.729,136.516c1.629,2.02 3.315,3.979 5.126,5.779c9.793,9.719 20.07,16.264 31.212,19.995c14.379,4.827 28.627,5.309 28.627,5.309l20.697,-1.529c-0,0 41.812,-4.664 67.517,-31.739c22.418,-23.616 29.351,-68.185 27.445,-91.201c-0.848,-10.159 -12.373,-30.62 -32.518,-37.739Z" style="fill:#05293d;fill-opacity:0.73;fill-rule:nonzero;"/><path d="M899.515,753.067l-90.482,104.928c1.421,4.121 3.054,8.216 4.898,12.204l101.454,-117.641c-5.26,0.063 -10.576,0.234 -15.87,0.509Z" style="fill:#f2f2f2;fill-rule:nonzero;"/><path d="M899.515,753.067l-90.482,104.928c1.421,4.121 3.054,8.216 4.898,12.204l101.454,-117.641c-5.26,0.063 -10.576,0.234 -15.87,0.509Z" style="fill:#05293d;fill-opacity:0.73;fill-rule:nonzero;"/><path d="M1130.77,747.219c-18.881,10.004 -27.274,31.936 -26.614,42.109c0.661,10.145 3.634,24.17 8.934,38.404l83.086,-96.36c-26.19,3.01 -51.667,8.57 -65.406,15.847Z" style="fill:#f2f2f2;fill-rule:nonzero;"/><path d="M1130.77,747.219c-18.881,10.004 -27.274,31.936 -26.614,42.109c0.661,10.145 3.634,24.17 8.934,38.404l83.086,-96.36c-26.19,3.01 -51.667,8.57 -65.406,15.847Z" style="fill:#05293d;fill-opacity:0.73;fill-rule:nonzero;"/><path d="M1227.25,729.04l-103.951,120.547c2.043,3.551 4.256,6.966 6.626,10.212l112.876,-130.889c-4.94,-0.093 -10.158,-0.049 -15.551,0.13Z" style="fill:#f2f2f2;fill-rule:nonzero;"/><path d="M1227.25,729.04l-103.951,120.547c2.043,3.551 4.256,6.966 6.626,10.212l112.876,-130.889c-4.94,-0.093 -10.158,-0.049 -15.551,0.13Z" style="fill:#05293d;fill-opacity:0.73;fill-rule:nonzero;"/><path d="M1309.53,772.647c-3.447,-18 -16.452,-34.296 -37.176,-40.346c-0.889,-0.259 -1.828,-0.501 -2.814,-0.73l-124.405,144.25c25.481,19.658 60.178,21.128 68.933,21.17c0.898,-0.359 1.646,-0.344 2.231,-0.03l20.548,-1.518c-0,0 14.018,-2.572 27.546,-9.461c10.463,-5.329 19.673,-13.313 27.92,-24.364c19.371,-25.932 21.027,-68.898 17.217,-88.971Z" style="fill:#f2f2f2;fill-rule:nonzero;"/><path d="M1309.53,772.647c-3.447,-18 -16.452,-34.296 -37.176,-40.346c-0.889,-0.259 -1.828,-0.501 -2.814,-0.73l-124.405,144.25c25.481,19.658 60.178,21.128 68.933,21.17c0.898,-0.359 1.646,-0.344 2.231,-0.03l20.548,-1.518c-0,0 14.018,-2.572 27.546,-9.461c10.463,-5.329 19.673,-13.313 27.92,-24.364c19.371,-25.932 21.027,-68.898 17.217,-88.971Z" style="fill:#05293d;fill-opacity:0.73;fill-rule:nonzero;"/><path d="M867.912,756.033l-65.346,75.776c1.296,8.244 3.385,17.253 6.467,26.186l90.482,-104.928c-10.924,0.568 -21.712,1.576 -31.603,2.966Z" style="fill:#f2f2f2;fill-rule:nonzero;"/><path d="M915.385,752.56l-101.454,117.641c3.288,7.107 7.293,13.829 12.04,19.726l117.729,-136.517c-8.838,-0.699 -18.463,-0.967 -28.315,-0.85Z" style="fill:#f2f2f2;fill-rule:nonzero;"/><path d="M1196.18,731.372l-83.088,96.36c2.761,7.405 6.177,14.85 10.207,21.855l103.951,-120.547c-10.006,0.334 -20.594,1.127 -31.07,2.332Z" style="fill:#f2f2f2;fill-rule:nonzero;"/><path d="M1242.8,728.912l-112.876,130.89c4.381,5.997 9.284,11.401 14.786,15.704c0.142,0.109 0.288,0.21 0.429,0.319l124.405,-144.251c-6.902,-1.598 -16.179,-2.454 -26.744,-2.662Z" style="fill:#f2f2f2;fill-rule:nonzero;"/><path d="M785.189,777.211c7.781,-1.306 15.23,-4.703 14.35,-6.993c-0.927,-2.394 -8.003,-3.118 -16.488,-1.752c-8.513,1.365 -15.133,4.681 -14.347,7.003c0.955,2.773 8.008,3.189 16.485,1.742Z" style="fill:#f2f2f2;fill-rule:nonzero;"/><path d="M1320.39,728.696c-8.63,-0.034 -15.705,2.163 -15.299,4.574c0.491,2.888 7.391,4.452 15.98,4.412c7.894,-0.043 15.787,-2.198 15.285,-4.595c-0.521,-2.503 -7.372,-4.362 -15.966,-4.391Z" style="fill:#f2f2f2;fill-rule:nonzero;"/><path d="M1182.01,716.678c-54.977,6.709 -101.713,35.101 -130.961,37.921c-29.78,2.873 -62.475,-17.942 -135.115,-18.258c-88.609,-0.374 -161.835,22.371 -161.835,22.371l5.459,33.788c0,-0 15.195,2.32 20.745,19.257c7.723,23.566 8.862,66.333 31.906,89.802c26.93,27.431 52.432,31.827 78.125,31.389c25.077,-0.443 81.092,-7.879 109.613,-45.263c10.833,-14.199 18.996,-32.999 24.485,-50.86c6.258,-20.381 9.62,-42.133 17.2,-48.833c2.779,-2.452 6.964,-2.072 11.712,-2.354c6.532,-0.391 12.129,-0.862 16.591,3.234c10.845,9.939 16.982,33.53 27.801,54.434c7.09,13.688 17.95,27.058 29.553,37.939c29.888,28.008 92.579,28.699 114.867,25.702c24.519,-3.306 51.563,-13.966 67.076,-37.655c7.542,-11.537 12.286,-25.507 14.896,-39.745c3.76,-20.582 3.68,-41.734 6.205,-56.938c3.344,-20.201 16.2,-22.012 16.2,-22.012l1.812,-35.804c-0,0.002 -75.751,-9.172 -166.335,1.885Zm-202.863,171.061c-25.706,27.072 -67.516,31.739 -67.516,31.739l-20.697,1.529c-0,0 -14.248,-0.482 -28.627,-5.309c-11.142,-3.733 -21.42,-10.276 -31.213,-19.995c-1.81,-1.798 -3.498,-3.756 -5.125,-5.779c-4.749,-5.898 -8.749,-12.616 -12.041,-19.725c-1.844,-3.988 -3.476,-8.083 -4.897,-12.204c-3.082,-8.933 -5.172,-17.942 -6.467,-26.186c-1.305,-8.3 -1.8,-15.824 -1.564,-21.579c0.76,-18.311 11.22,-36.342 30.833,-45.372c8.039,-3.702 21.008,-6.704 36.073,-8.825c9.891,-1.392 20.681,-2.398 31.604,-2.966c5.295,-0.275 10.611,-0.446 15.871,-0.509c9.849,-0.114 19.477,0.153 28.312,0.85c12.144,0.956 22.786,2.712 30.377,5.391c20.144,7.12 31.669,27.58 32.517,37.74c1.912,23.015 -5.021,67.584 -27.44,91.2Zm-210.445,-112.273c-0.788,-2.322 5.834,-5.638 14.346,-7.003c8.486,-1.366 15.562,-0.639 16.488,1.753c0.883,2.289 -6.568,5.686 -14.35,6.991c-8.476,1.451 -15.529,1.035 -16.484,-1.741Zm552.366,-37.784c-8.588,0.04 -15.488,-1.524 -15.979,-4.412c-0.406,-2.411 6.665,-4.608 15.298,-4.574c8.594,0.029 15.446,1.888 15.966,4.391c0.502,2.397 -7.391,4.552 -15.285,4.595Zm-56.676,148.3c-13.527,6.889 -27.546,9.461 -27.546,9.461l-20.547,1.518c-0.582,-0.315 -1.333,-0.329 -2.231,0.03c-8.753,-0.042 -43.45,-1.513 -68.933,-21.17c-0.141,-0.108 -0.288,-0.208 -0.429,-0.318c-5.503,-4.303 -10.406,-9.704 -14.786,-15.704c-2.374,-3.248 -4.586,-6.661 -6.626,-10.212c-4.03,-7.005 -7.446,-14.448 -10.206,-21.855c-5.302,-14.237 -8.276,-28.259 -8.934,-38.404c-0.66,-10.173 7.733,-32.105 26.614,-42.109c13.739,-7.277 39.216,-12.837 65.41,-15.847c10.479,-1.205 21.067,-1.998 31.066,-2.332c5.393,-0.179 10.611,-0.223 15.552,-0.128c10.565,0.211 19.842,1.066 26.744,2.662c0.988,0.226 1.928,0.471 2.814,0.73c20.725,6.046 33.732,22.343 37.175,40.346c3.811,20.073 2.155,63.039 -17.216,88.97c-8.247,11.049 -17.457,19.035 -27.921,24.362Z" style="fill:#05293d;fill-rule:nonzero;"/></g></g></svg>