<?xml version="1.0" encoding="UTF-8" standalone="no"?><!DOCTYPE svg PUBLIC "-//W3C//DTD SVG 1.1//EN" "http://www.w3.org/Graphics/SVG/1.1/DTD/svg11.dtd"><svg width="100%" height="100%" viewBox="0 0 2134 2134" version="1.1" xmlns="http://www.w3.org/2000/svg" xmlns:xlink="http://www.w3.org/1999/xlink" xml:space="preserve" xmlns:serif="http://www.serif.com/" style="fill-rule:evenodd;clip-rule:evenodd;stroke-linejoin:round;stroke-miterlimit:2;"><g><path d="M912.889,1029.82l-36.138,40.783l-157.862,59.987l75.488,-97.448l-157.576,31.146c-0,0 126.718,-284.709 101.032,-340.982l-38.03,32.635l69.602,-360.988c0,-0 31.96,-48.049 135.891,-115.316c48.496,-31.387 79.011,-69.608 192.462,-80.328c198.659,-18.771 269.106,80.562 269.106,80.562c0,-0 172.031,131.593 141.588,285.573c-20.812,105.27 13.157,339.403 13.157,339.403l15.484,88.751l-98.353,-88.751l-12.942,62.104l14.521,97.337l42.623,104.189l-97.875,-104.189l-34.73,-50.516" style="fill:#fff;"/><path d="M1438.74,350.756c-142.783,-167.207 -311.171,-197.728 -505.158,-91.56c-56.319,39.452 -108.938,83.653 -157.862,132.604c7.286,5.77 6.232,11.032 -3.158,15.786c-1.054,-4.21 -2.102,-8.419 -3.157,-12.629c75.42,-101.628 174.349,-170.035 296.781,-205.221c158.323,-21.8 282.503,31.873 372.554,161.02Z" style="fill:#b02b38;"/><path d="M1078.82,300.24c-0,-4.21 -2.103,-6.315 -6.315,-6.315c19.285,-10.573 40.337,-13.73 63.145,-9.471c-18.779,6.27 -37.723,11.532 -56.83,15.786Z" style="fill:#d5898e;"/><path d="M1072.5,293.925c4.212,0 6.315,2.105 6.315,6.315c-103.217,26.295 -187.408,81.02 -252.58,164.176c-5.462,6.837 -11.776,7.89 -18.943,3.158c59.937,-100.533 148.34,-158.415 265.208,-173.649Z" style="fill:#ac242e;"/><path d="M1438.74,350.756c11.126,4.813 17.441,13.232 18.944,25.258c-11.126,-4.814 -17.441,-13.233 -18.944,-25.258Z" style="fill:#d07a84;"/><path d="M1457.68,376.014c13.184,11.59 21.602,26.324 25.258,44.201c-13.185,-11.591 -21.602,-26.325 -25.258,-44.201Z" style="fill:#cd737d;"/><path d="M466.31,477.045c-16.841,10.525 -33.675,21.048 -50.516,31.573c12.484,-14.611 25.113,-29.345 37.887,-44.202c6.453,2.245 10.665,6.455 12.629,12.629Z" style="fill:#b83b44;"/><path d="M466.31,477.045l-0,31.573c-18.748,15.735 -37.691,31.521 -56.83,47.358c27.329,1.113 46.272,-10.463 56.83,-34.729c-0.827,4.665 0.227,8.875 3.157,12.629c35.336,-13.405 71.114,-26.034 107.346,-37.887c4.831,0.441 7.988,2.546 9.472,6.314c-8.708,18.223 -21.337,34.009 -37.887,47.359c-25.258,12.629 -50.516,25.258 -75.774,37.887c-22.315,24.43 -46.518,46.53 -72.616,66.302c-0.095,18.678 8.329,33.416 25.258,44.201c2.418,-3.511 5.575,-5.613 9.472,-6.314c16.916,13.266 34.805,25.895 53.673,37.887c4.988,-44.423 17.617,-86.521 37.887,-126.29c16.386,-9.958 34.281,-16.273 53.673,-18.944c-4.212,21.049 -8.418,42.097 -12.629,63.145c-8.165,8.474 -13.425,19.001 -15.787,31.573c-3.012,36.971 -10.374,72.755 -22.1,107.346c-29.937,-26.009 -60.455,-51.267 -91.56,-75.774c12.029,32.185 16.234,65.86 12.629,101.032c-27.374,32.557 -61.049,53.603 -101.032,63.145c-22.448,250.476 -74.012,494.638 -154.705,732.48c8.146,5.733 16.563,4.679 25.258,-3.158c28.365,-28.415 49.411,-61.042 63.145,-97.874c1.484,3.77 4.641,5.872 9.472,6.314c77.731,-27.588 156.662,-50.736 236.793,-69.459c16.102,0.385 25.573,8.802 28.415,25.258c23.111,68.215 41,137.675 53.673,208.378c-164.795,62.513 -334.232,108.824 -508.316,138.919c-16.354,0.783 -31.088,-3.423 -44.201,-12.629c-30.56,-46.317 -48.451,-96.833 -53.673,-151.548c37.548,-154.837 81.75,-308.488 132.604,-460.957c39.032,-102.415 70.602,-207.658 94.717,-315.724c6.283,-68.329 8.386,-137.789 6.315,-208.378c22.309,-17.049 45.458,-32.835 69.459,-47.359c-3.751,-2.932 -7.963,-3.984 -12.629,-3.157c11.833,-4.958 24.462,-9.167 37.887,-12.629c1.957,7.819 5.115,7.819 9.472,-0c4.18,-14.604 7.337,-29.337 9.471,-44.201c8.62,-14.901 21.248,-25.426 37.887,-31.573c12.023,-1.5 20.446,-7.815 25.258,-18.943c16.841,-10.525 33.675,-21.048 50.516,-31.573Z" style="fill:#fde4be;"/><path d="M466.31,477.045c15.294,9.774 15.294,20.298 -0,31.573l-0,-31.573Z" style="fill:#c45859;"/><path d="M1482.94,420.215c24.879,35.56 40.665,75.551 47.358,119.975c2.103,124.187 4.212,248.368 6.315,372.555c6.422,40.431 12.736,80.421 18.943,119.975c-38.013,-41.164 -74.845,-83.257 -110.503,-126.29c-6.012,9.756 -8.114,20.282 -6.315,31.572c-4.212,25.258 -8.417,50.516 -12.629,75.774c-5.26,-50.44 -6.308,-100.956 -3.157,-151.547c31.572,35.784 63.145,71.562 94.717,107.346c1.055,-5.26 2.103,-10.526 3.158,-15.786c-15.029,-79.272 -23.446,-159.252 -25.258,-239.951c5.727,-78.89 6.781,-157.821 3.157,-236.793c-7.23,-18.513 -12.49,-37.456 -15.786,-56.83Z" style="fill:#b02936;"/><path d="M415.794,508.618c-4.812,11.128 -13.235,17.443 -25.258,18.943c4.812,-11.129 13.235,-17.443 25.258,-18.943Z" style="fill:#c96465;"/><path d="M466.31,508.618l-0,12.629c-10.558,24.266 -29.501,35.842 -56.83,34.729c19.139,-15.837 38.082,-31.623 56.83,-47.358Z" style="fill:#b13034;"/><path d="M763.091,413.9c3.94,2.633 6.043,6.843 6.314,12.629c-14.643,70.858 -24.115,142.422 -28.415,214.693c-9.699,45.925 -24.431,90.126 -44.201,132.604c13.569,-79.064 24.096,-159.045 31.572,-239.95c9.686,-40.631 21.267,-80.622 34.73,-119.976Z" style="fill:#af2634;"/><path d="M586.285,502.303c2.715,21.23 -3.599,39.121 -18.943,53.673c6.832,8.397 11.044,17.868 12.629,28.415c-19.392,2.671 -37.287,8.986 -53.673,18.944c-20.27,39.769 -32.899,81.867 -37.887,126.29c-18.868,-11.992 -36.757,-24.621 -53.673,-37.887c-3.897,0.701 -7.054,2.803 -9.472,6.314c-16.929,-10.785 -25.353,-25.523 -25.258,-44.201c26.098,-19.772 50.301,-41.872 72.616,-66.302c25.258,-12.629 50.516,-25.258 75.774,-37.887c16.55,-13.35 29.179,-29.136 37.887,-47.359Z" style="fill:#b12f38;"/><path d="M1179.85,565.448c1.017,19.12 -3.195,37.01 -12.628,53.673c2.121,6.503 6.333,9.661 12.628,9.472l0,18.943c-44.813,-3.21 -87.967,3.107 -129.446,18.944c-4.345,5.253 -3.29,9.459 3.157,12.629c46.771,-17.018 95.184,-23.332 145.233,-18.944c-39.32,6.087 -79.31,13.456 -119.975,22.101c-7.824,13.374 -5.715,24.948 6.314,34.73c-0.827,5.531 1.276,9.743 6.315,12.629c9.351,-6.189 17.775,-13.558 25.258,-22.101c15.401,-3.252 16.449,-0.095 3.157,9.472c-8.291,23.395 -0.922,38.126 22.101,44.201c9.175,8.367 7.065,13.627 -6.315,15.786c18.432,3.486 35.273,-0.726 50.516,-12.629c6.005,-4.534 7.053,-9.794 3.157,-15.786c-5.152,8.354 -12.521,12.56 -22.1,12.629c-0.07,-9.579 -4.275,-16.948 -12.629,-22.101c6.623,-3.106 12.938,-2.058 18.943,3.158c7.874,-9.51 7.874,-18.982 -0,-28.416c10.318,-3.119 20.844,-4.167 31.572,-3.157c17.504,-0.6 30.133,-9.023 37.887,-25.258c-8.916,-8.247 -19.442,-13.513 -31.572,-15.786c12.458,-3.126 25.087,-4.18 37.887,-3.157c14.561,3.113 29.293,5.215 44.201,6.314l0,-18.943c-8.152,1.496 -14.466,-0.606 -18.943,-6.315l25.258,0l-0,50.516c-8.127,73.532 -2.867,147.203 15.786,221.007c2.93,-3.751 3.984,-7.963 3.157,-12.629c3.839,32.078 12.256,63.65 25.258,94.717c-14.858,14.902 -27.487,31.743 -37.887,50.516c-39.137,57.014 -91.756,95.949 -157.862,116.818c49.948,44.726 98.361,89.975 145.233,135.761c-105.408,38.115 -208.542,32.848 -309.409,-15.786c-15.534,-9.206 -29.218,-20.781 -41.045,-34.729c0.607,-21.893 5.873,-42.939 15.787,-63.145c6.497,-12.737 12.812,-25.365 18.943,-37.887c19.973,11.025 41.019,20.497 63.145,28.415c18.943,4.212 37.887,4.212 56.83,0c-71.953,-10.842 -129.838,-45.572 -173.648,-104.189c-81.501,-98.455 -122.545,-212.116 -123.132,-340.982c6.314,2.103 10.526,6.315 12.628,12.629c2.16,5.292 6.365,7.401 12.629,6.314c4.212,6.315 8.418,12.629 12.629,18.944c-8.044,4.351 -8.044,9.617 0,15.786c13.747,7.59 28.485,10.747 44.202,9.472c31.023,-3.675 49.966,-20.516 56.83,-50.516l0,-6.314c2.267,-14.309 -1.945,-25.884 -12.629,-34.73c-43.816,-6.529 -85.908,-1.269 -126.289,15.786c-2.425,-28.478 -6.637,-55.839 -12.629,-82.088c-1.958,-20.289 0.145,-39.233 6.314,-56.831l0,44.202c37.925,-4.565 75.812,-9.827 113.661,-15.786c3.157,-3.158 6.314,-6.315 9.471,-9.472c61.605,7.271 123.695,8.323 186.278,3.157c26.438,-12.155 51.696,-25.836 75.773,-41.044Z" style="fill:#fde4bf;"/><path d="M434.738,691.738c-8.361,-16.645 -8.361,-33.48 -0,-50.516c16.872,-13.719 31.61,-29.505 44.201,-47.359c16.43,-6.17 32.216,-13.536 47.359,-22.101c-17.372,44.728 -33.158,91.036 -47.359,138.919c-14.138,-8.133 -28.87,-14.447 -44.201,-18.943Z" style="fill:#fcf5f5;"/><path d="M1179.85,565.448c-24.077,15.208 -49.335,28.889 -75.773,41.044c-62.583,5.166 -124.673,4.114 -186.278,-3.157c-3.157,3.157 -6.314,6.314 -9.471,9.472c-37.849,5.959 -75.736,11.221 -113.661,15.786l0,-44.202c17.801,2.329 35.689,4.434 53.673,6.315c82,-16.106 164.088,-16.106 246.265,-0c9.472,-2.105 18.943,-4.21 28.415,-6.315c17.889,-23.153 35.784,-46.306 53.673,-69.459c3.139,16.708 4.193,33.547 3.157,50.516Z" style="fill:#a91828;"/><path d="M352.649,559.134c-2.134,14.864 -5.291,29.597 -9.471,44.201c-4.357,7.819 -7.515,7.819 -9.472,-0c1.307,-17.306 7.621,-32.039 18.943,-44.201Z" style="fill:#b83d44;"/><path d="M295.819,615.964c4.666,-0.827 8.878,0.225 12.629,3.157c-24.001,14.524 -47.15,30.31 -69.459,47.359c15.028,-21.35 33.971,-38.185 56.83,-50.516Z" style="fill:#b93f47;"/><path d="M1192.48,634.907c27.09,5.838 54.457,10.047 82.089,12.629c4.477,5.709 10.791,7.811 18.943,6.315l0,18.943c-14.908,-1.099 -29.64,-3.201 -44.201,-6.314c-6.744,-5.898 -15.161,-8.007 -25.258,-6.315c-9.169,-5.064 -19.689,-8.221 -31.573,-9.471c-8.044,-6.17 -8.044,-11.433 0,-15.787Z" style="fill:#a81526;"/><path d="M1179.85,628.593c6.264,-1.084 10.47,1.022 12.629,6.314c-8.044,4.354 -8.044,9.617 0,15.787c11.884,1.25 22.404,4.407 31.573,9.471l-25.258,0c-50.049,-4.388 -98.462,1.926 -145.233,18.944c-6.447,-3.17 -7.502,-7.376 -3.157,-12.629c41.479,-15.837 84.633,-22.154 129.446,-18.944l0,-18.943Z" style="fill:#c65c55;"/><path d="M1198.79,660.165l25.258,0c10.097,-1.692 18.514,0.417 25.258,6.315c-12.8,-1.023 -25.429,0.031 -37.887,3.157c12.13,2.273 22.656,7.539 31.572,15.786c-7.754,16.235 -20.383,24.658 -37.887,25.258c-41.227,-18.823 -81.223,-16.721 -119.975,6.315c-12.029,-9.782 -14.138,-21.356 -6.314,-34.73c40.665,-8.645 80.655,-16.014 119.975,-22.101Z" style="fill:#d69486;"/><path d="M838.864,672.794c23.25,-1.042 46.399,0.007 69.46,3.157c7.097,1.573 13.412,4.73 18.943,9.472c-35.715,0.038 -71.499,2.141 -107.346,6.315c-2.103,-1.055 -4.212,-2.103 -6.315,-3.158c8.576,-5.897 16.999,-11.164 25.258,-15.786Z" style="fill:#b6393c;"/><path d="M744.147,742.254c1.497,-8.152 -0.606,-14.467 -6.314,-18.944c-1.383,-7.419 0.72,-13.734 6.314,-18.943c8.165,13.487 8.165,26.116 0,37.887Z" style="fill:#cd737e;"/><path d="M939.896,742.254c-43.286,-18.338 -85.378,-16.229 -126.29,6.314c-2.102,-6.314 -6.314,-10.526 -12.628,-12.629l-0,-12.629c40.381,-17.055 82.473,-22.315 126.289,-15.786c10.684,8.846 14.896,20.421 12.629,34.73Z" style="fill:#d59486;"/><path d="M1205.1,710.681c-10.728,-1.01 -21.254,0.038 -31.572,3.157c7.874,9.434 7.874,18.906 -0,28.416c-6.005,-5.216 -12.32,-6.264 -18.943,-3.158c8.354,5.153 12.559,12.522 12.629,22.101l-25.258,-0c-23.023,-6.075 -30.392,-20.806 -22.101,-44.201c13.292,-9.567 12.244,-12.724 -3.157,-9.472c-7.483,8.543 -15.907,15.912 -25.258,22.101c-5.039,-2.886 -7.142,-7.098 -6.315,-12.629c38.752,-23.036 78.748,-25.138 119.975,-6.315Z" style="fill:#a91528;"/><path d="M238.989,666.48c2.071,70.589 -0.032,140.049 -6.315,208.378c2.065,-64.288 -0.038,-127.433 -6.314,-189.435c2.727,-7.64 6.939,-13.955 12.629,-18.943Z" style="fill:#ecb79e;"/><path d="M567.342,647.536c-3.827,58.996 -9.087,117.93 -15.787,176.806c-5.575,16.43 -15.047,30.114 -28.415,41.044c-45.395,29.545 -86.439,64.275 -123.132,104.189c-9.661,22.669 -18.085,45.824 -25.258,69.459c-30.089,155.715 -60.613,311.475 -91.56,467.272c-13.734,36.832 -34.78,69.459 -63.145,97.874c-8.695,7.837 -17.112,8.891 -25.258,3.158c80.693,-237.842 132.257,-482.004 154.705,-732.48c39.983,-9.542 73.658,-30.588 101.032,-63.145c3.605,-35.172 -0.6,-68.847 -12.629,-101.032c31.105,24.507 61.623,49.765 91.56,75.774c11.726,-34.591 19.088,-70.375 22.1,-107.346c2.362,-12.572 7.622,-23.099 15.787,-31.573Z" style="fill:#a91529;"/><path d="M939.896,742.254l0,6.314c-13.961,2.949 -26.59,9.263 -37.887,18.943c9.642,11.556 6.485,17.87 -9.471,18.944c-24.766,-4.048 -34.238,-18.786 -28.416,-44.201c-13.91,0.656 -26.539,4.862 -37.887,12.628c-6.264,1.087 -10.469,-1.022 -12.629,-6.314c40.912,-22.543 83.004,-24.652 126.29,-6.314Z" style="fill:#aa182a;"/><path d="M1299.82,698.052c2.671,69.8 8.985,139.26 18.943,208.378c0.827,4.666 -0.227,8.878 -3.157,12.629c-18.653,-73.804 -23.913,-147.475 -15.786,-221.007Z" style="fill:#c35459;"/><path d="M333.706,742.254c20.932,4.142 37.773,14.668 50.516,31.572c-14.574,21.943 -30.36,42.989 -47.359,63.145c-3.151,-31.503 -4.205,-63.076 -3.157,-94.717Z" style="fill:#aa1b2a;"/><path d="M939.896,748.568c-6.864,30 -25.807,46.841 -56.83,50.516c-15.559,-6.738 -30.291,-15.155 -44.202,-25.258c-4.211,-6.315 -8.417,-12.629 -12.629,-18.944c11.348,-7.766 23.977,-11.972 37.887,-12.628c-5.822,25.415 3.65,40.153 28.416,44.201c15.956,-1.074 19.113,-7.388 9.471,-18.944c11.297,-9.68 23.926,-15.994 37.887,-18.943Z" style="fill:#fbebdc;"/><path d="M1141.96,761.197l25.258,-0c9.579,-0.069 16.948,-4.275 22.1,-12.629c3.896,5.992 2.848,11.252 -3.157,15.786c-15.243,11.903 -32.084,16.115 -50.516,12.629c13.38,-2.159 15.49,-7.419 6.315,-15.786Z" style="fill:#ce706b;"/><path d="M838.864,773.826c13.911,10.103 28.643,18.52 44.202,25.258c-15.717,1.275 -30.455,-1.882 -44.202,-9.472c-8.044,-6.169 -8.044,-11.435 0,-15.786Z" style="fill:#c75e5b;"/><path d="M1003.04,704.367c40.324,41.959 60.316,92.475 59.988,151.547c-11.55,-10.457 -19.973,-23.086 -25.258,-37.887c-5.797,-40.109 -17.372,-77.996 -34.73,-113.66Z" style="fill:#d99c8c;"/><path d="M1034.61,900.116l37.887,-0l0,25.258c-18.356,-0.474 -35.19,-5.74 -50.516,-15.787c5.784,-1.755 9.99,-4.912 12.629,-9.471Z" style="fill:#d59587;"/><path d="M226.36,685.423c6.276,62.002 8.379,125.147 6.314,189.435c-24.115,108.066 -55.685,213.309 -94.717,315.724c-0,-4.212 -2.105,-6.315 -6.315,-6.315c31.566,-91.547 59.981,-184.162 85.246,-277.837c8.007,-73.444 11.164,-147.108 9.472,-221.007Z" style="fill:#b93f49;"/><path d="M984.098,912.745c36.826,-2.16 38.935,8.36 6.314,31.572c-13.917,-8.095 -16.026,-18.621 -6.314,-31.572Z" style="fill:#d79789;"/><path d="M1129.33,994.833c-12.926,30.789 -36.081,48.678 -69.46,53.673c-18.943,4.212 -37.887,4.212 -56.83,-0c-5.102,-1.945 -9.314,-5.102 -12.629,-9.472c39.63,-8.998 77.517,-21.627 113.661,-37.887c8.417,-2.102 16.84,-4.211 25.258,-6.314Z" style="fill:#fbf6f4;"/><path d="M1104.07,1001.15c-36.144,16.26 -74.031,28.889 -113.661,37.887c3.315,4.37 7.527,7.527 12.629,9.472c18.943,4.212 37.887,4.212 56.83,-0c33.379,-4.995 56.534,-22.884 69.46,-53.673c8.36,-8.525 14.674,-7.47 18.943,3.157c-20.825,64.13 -65.026,91.491 -132.604,82.088c-19.423,-5.752 -34.155,-17.327 -44.201,-34.729c7.88,-12.37 18.406,-21.842 31.572,-28.415c33.454,-7.287 67.129,-12.547 101.032,-15.787Z" style="fill:#d79889;"/><path d="M788.349,1039.03c-1.011,10.438 -5.216,18.855 -12.629,25.258c-0,-8.417 -4.212,-12.629 -12.629,-12.629c6.403,-7.413 14.82,-11.618 25.258,-12.629Z" style="fill:#e1a6ae;"/><path d="M1438.74,938.002c-2.065,51.154 2.141,101.67 12.629,151.548c-13.898,-22.82 -22.315,-48.078 -25.258,-75.774c4.212,-25.258 8.417,-50.516 12.629,-75.774Z" style="fill:#d5858e;"/><path d="M737.833,723.31c5.708,4.477 7.811,10.792 6.314,18.944c3.347,120.448 -32.431,227.794 -107.346,322.038c49.562,-8.177 100.078,-20.806 151.548,-37.887c8.038,4.78 8.038,8.986 -0,12.629c-10.438,1.011 -18.855,5.216 -25.258,12.629c-51.893,16.67 -104.511,28.245 -157.862,34.73c69.794,-111.501 113.995,-232.525 132.604,-363.083Z" style="fill:#ae2634;"/><path d="M788.349,641.222c5.992,26.249 10.204,53.61 12.629,82.088l-0,12.629c0.587,128.866 41.631,242.527 123.132,340.982c43.81,58.617 101.695,93.347 173.648,104.189c-18.943,4.212 -37.887,4.212 -56.83,0c-22.126,-7.918 -43.172,-17.39 -63.145,-28.415c-101.177,-90.746 -161.165,-204.406 -179.963,-340.982c-7.684,-56.572 -10.842,-113.402 -9.471,-170.491Z" style="fill:#b02b35;"/><path d="M1306.14,1051.66c9.56,50.87 21.135,101.385 34.73,151.548c1.263,11.492 6.529,19.909 15.786,25.258c2.16,5.291 6.365,7.4 12.629,6.314c-17.289,31.806 -42.547,54.961 -75.774,69.459c-46.872,-45.786 -95.285,-91.035 -145.233,-135.761c66.106,-20.869 118.725,-59.804 157.862,-116.818Z" style="fill:#d59486;"/><path d="M1344.02,1001.15c1.92,4.105 4.022,8.316 6.314,12.629c-15.142,13.45 -23.565,30.291 -25.257,50.516c7.116,52.606 19.745,103.122 37.886,151.548c-5.291,2.159 -7.4,6.365 -6.314,12.629c-9.257,-5.349 -14.523,-13.766 -15.786,-25.258c-13.595,-50.163 -25.17,-100.678 -34.73,-151.548c10.4,-18.773 23.029,-35.614 37.887,-50.516Z" style="fill:#ae2433;"/><path d="M1464,1121.12c9.592,15.919 20.118,31.705 31.573,47.359c-4.212,4.212 -8.418,4.212 -12.629,0c-40.129,-29.545 -72.756,-64.275 -97.875,-104.189c25.258,25.258 50.516,50.516 75.774,75.774c3.05,-5.986 4.098,-12.301 3.157,-18.944Z" style="fill:#d07982;"/><path d="M1451.37,1089.55c9.036,8.083 13.248,18.609 12.629,31.572c-9.036,-8.082 -13.248,-18.608 -12.629,-31.572Z" style="fill:#cd747e;"/><path d="M775.72,1064.29c-6.675,15.414 -15.092,30.152 -25.258,44.202c43.248,-4.781 81.134,-23.724 113.66,-56.831c5.778,5.229 9.984,11.543 12.629,18.944c-46.02,36.75 -98.638,56.742 -157.862,59.987c18.091,-23.313 37.035,-45.414 56.831,-66.302Z" style="fill:#ae2535;"/><path d="M958.84,1190.58c-9.914,20.206 -15.18,41.252 -15.787,63.145c11.827,13.948 25.511,25.523 41.045,34.729c100.867,48.634 204.001,53.901 309.409,15.786c33.227,-14.498 58.485,-37.653 75.774,-69.459c15.988,6.921 30.72,15.338 44.201,25.258c-14.441,22.871 -31.275,43.917 -50.516,63.145c-122.961,77.693 -249.251,82.953 -378.868,15.786c-30.133,-17.504 -56.446,-39.604 -78.932,-66.302c-113.957,59.609 -228.666,116.439 -344.139,170.491c67.906,94.263 101.581,199.5 101.032,315.724l-31.573,0c-0.372,-20.143 -2.481,-40.141 -6.314,-59.987c-0.682,-10.615 -4.894,-17.984 -12.629,-22.101c-12.673,-70.703 -30.562,-140.163 -53.673,-208.378c-2.842,-16.456 -12.313,-24.873 -28.415,-25.258c93.498,-46.752 188.216,-94.111 284.151,-142.076c53.017,-30.928 101.424,-67.767 145.234,-110.503Z" style="fill:#ec813c;"/><path d="M1362.97,1215.84c50.927,25.466 101.443,50.724 151.548,75.774c-33.675,-10.527 -67.357,-21.047 -101.032,-31.573c-13.481,-9.92 -28.213,-18.337 -44.201,-25.258c-6.264,1.086 -10.469,-1.023 -12.629,-6.314c-1.086,-6.264 1.023,-10.47 6.314,-12.629Z" style="fill:#e01f28;"/><path d="M1413.48,1260.04c33.675,10.526 67.357,21.046 101.032,31.573c79.038,22.485 154.812,53.003 227.321,91.56c51.47,38.846 98.828,81.993 142.076,129.446c24.261,31.762 48.464,63.335 72.617,94.718c-4.199,13.879 -8.411,28.611 -12.629,44.201c-103.709,-134 -236.313,-227.662 -397.813,-280.994c-60.947,-16.462 -121.983,-32.249 -183.12,-47.359c19.241,-19.228 36.075,-40.274 50.516,-63.145Z" style="fill:#a90d27;"/><path d="M1362.97,1323.19c61.137,15.11 122.173,30.897 183.12,47.359c161.5,53.332 294.104,146.994 397.813,280.994c4.218,-15.59 8.43,-30.322 12.629,-44.201c5.942,9.787 10.147,20.307 12.629,31.572c1.692,10.097 -0.417,18.514 -6.315,25.258c-94.521,81.823 -197.656,151.282 -309.409,208.378c-60.676,14.593 -117.507,37.742 -170.491,69.459l-644.078,0c-60.012,-61.055 -123.157,-118.939 -189.434,-173.648c5.784,-1.755 9.989,-4.913 12.629,-9.472c0.549,-116.224 -33.126,-221.461 -101.032,-315.724c115.473,-54.052 230.182,-110.882 344.139,-170.491c22.486,26.698 48.799,48.798 78.932,66.302c129.617,67.167 255.907,61.907 378.868,-15.786Z" style="fill:#e2021a;"/><path d="M131.642,1184.27c4.21,0 6.315,2.103 6.315,6.315c-50.854,152.469 -95.056,306.12 -132.604,460.957c17.636,-162.358 59.732,-318.117 126.289,-467.272Z" style="fill:#af2734;"/><path d="M1426.11,1670.48c6.182,-19.732 8.291,-40.778 6.315,-63.144l37.887,-0c-1.977,22.366 0.132,43.412 6.314,63.144c5.532,-0.827 9.743,1.276 12.629,6.315c-69.459,8.417 -138.919,8.417 -208.378,-0c11.562,-23.623 15.767,-48.88 12.629,-75.774l44.202,0l-0,69.459l25.257,0c3.139,-26.893 -1.067,-52.151 -12.629,-75.773c18.325,-12.446 24.64,-28.232 18.944,-47.359c8.922,-20.737 17.34,-20.737 25.258,0c-0.916,4.875 -3.018,9.087 -6.315,12.629c12.086,8.922 20.504,20.503 25.258,34.73c-5.891,24.809 -7.994,50.067 -6.314,75.773l18.943,0Z" style="fill:#fef2f1;"/><rect x="1306.14" y="1569.45" width="18.943" height="18.943" style="fill:#fdf1ef;"/><rect x="1438.74" y="1569.45" width="25.258" height="18.943" style="fill:#fcdcd8;"/><path d="M1476.63,1670.48c-6.182,-19.732 -8.291,-40.778 -6.314,-63.144l-37.887,-0c1.976,22.366 -0.133,43.412 -6.315,63.144l0,-69.459l50.516,0l0,69.459Z" style="fill:#f18c88;"/><path d="M1969.16,1638.91c6.144,15.458 8.247,32.299 6.314,50.516c-5.335,-7.394 -9.541,-15.818 -12.629,-25.258c5.898,-6.744 8.007,-15.161 6.315,-25.258Z" style="fill:#eb7377;"/><path d="M1962.84,1664.17c3.088,9.44 7.294,17.864 12.629,25.258c5.292,2.159 7.401,6.365 6.315,12.629c37.59,83.604 81.791,163.583 132.604,239.95l-378.869,0c-28.535,-21.652 -55.896,-44.807 -82.088,-69.459c111.753,-57.096 214.888,-126.555 309.409,-208.378Z" style="fill:#fde5bf;"/><path d="M5.353,1651.54c5.222,54.715 23.113,105.231 53.673,151.548c13.113,9.206 27.847,13.412 44.201,12.629c174.084,-30.095 343.521,-76.406 508.316,-138.919c7.735,4.117 11.947,11.486 12.629,22.101c3.833,19.846 5.942,39.844 6.314,59.987l31.573,0c-2.64,4.559 -6.845,7.717 -12.629,9.472c66.277,54.709 129.422,112.593 189.434,173.648c-51.058,1.901 -101.574,-0.208 -151.547,-6.314c-10.924,-54.873 -28.813,-107.492 -53.673,-157.862c-5.639,-3.669 -11.954,-5.778 -18.944,-6.315c-159.605,42.023 -321.678,69.39 -486.215,82.088c-61.646,3.928 -101.638,-23.433 -119.975,-82.088c-10.173,-40.753 -11.225,-80.743 -3.157,-119.975Z" style="fill:#a91429;"/><path d="M1476.63,1702.06l-183.12,-0c1.692,10.097 -0.417,18.514 -6.314,25.258l-0,-31.573c64.287,-2.064 127.432,0.038 189.434,6.315Z" style="fill:#f8beb7;"/><path d="M1476.63,1702.06c4.982,31.8 11.297,63.372 18.944,94.717c-26.104,6.22 -53.471,8.323 -82.089,6.315c1.036,-16.967 -0.019,-33.808 -3.157,-50.516c-18.047,-24.658 -34.887,-24.658 -50.516,-0c-3.138,16.708 -4.193,33.549 -3.157,50.516c-30.707,2.014 -60.177,-0.089 -88.403,-6.315c7.597,-22.795 13.911,-45.95 18.944,-69.459c5.897,-6.744 8.006,-15.161 6.314,-25.258l183.12,-0Z" style="fill:#fefcfb;"/><path d="M1981.79,1702.06c46.424,81.198 96.94,160.129 151.547,236.793c-5.986,3.05 -12.3,4.098 -18.943,3.157c-50.813,-76.367 -95.014,-156.346 -132.604,-239.95Z" style="fill:#b3313a;"/><path d="M1268.25,1796.77c28.226,6.226 57.696,8.329 88.403,6.315c-30.613,8.297 -62.185,8.297 -94.717,-0c0.783,-3.833 2.885,-5.936 6.314,-6.315Z" style="fill:#f18988;"/><path d="M1495.57,1796.77c3.428,0.379 5.531,2.482 6.314,6.315c-30.423,8.284 -59.893,8.284 -88.403,-0c28.618,2.008 55.985,-0.095 82.089,-6.315Z" style="fill:#f28f8d;"/><path d="M1653.43,1872.55c26.192,24.652 53.553,47.807 82.088,69.459c-16.967,1.036 -33.808,-0.019 -50.516,-3.157c-21.21,-18.994 -44.365,-34.78 -69.459,-47.359c-9.655,0.183 -17.024,4.395 -22.101,12.629c-5.847,13.842 -13.216,26.471 -22.101,37.887l-88.402,0c52.984,-31.717 109.815,-54.866 170.491,-69.459Z" style="fill:#ab152a;"/><path d="M687.317,1935.69c49.973,6.106 100.489,8.215 151.547,6.314l732.48,0c-146.268,4.212 -293.61,6.315 -442.013,6.315c-149.502,-0 -296.844,-4.212 -442.014,-12.629Z" style="fill:#efa4ae;"/><g><path d="M788.951,725.427c-18.603,8.563 -28.524,25.664 -29.242,43.034c-0.224,5.457 0.246,12.594 1.483,20.467l61.976,-71.871c-14.291,2.01 -26.591,4.857 -34.217,8.37Z" style="fill:#f2f2f2;fill-rule:nonzero;"/><path d="M788.951,725.427c-18.603,8.563 -28.524,25.664 -29.242,43.034c-0.224,5.457 0.246,12.594 1.483,20.467l61.976,-71.871c-14.291,2.01 -26.591,4.857 -34.217,8.37Z" style="fill:#05293d;fill-opacity:0.73;fill-rule:nonzero;"/><path d="M923.858,719.679c-7.199,-2.541 -17.293,-4.208 -28.811,-5.113l-111.659,129.477c1.545,1.916 3.144,3.774 4.861,5.482c9.288,9.217 19.036,15.425 29.603,18.964c13.638,4.578 27.151,5.035 27.151,5.035l19.63,-1.45c-0,-0 39.657,-4.424 64.036,-30.103c21.263,-22.398 27.838,-64.67 26.03,-86.499c-0.804,-9.635 -11.735,-29.041 -30.841,-35.793Z" style="fill:#f2f2f2;fill-rule:nonzero;"/><path d="M923.858,719.679c-7.199,-2.541 -17.293,-4.208 -28.811,-5.113l-111.659,129.477c1.545,1.916 3.144,3.774 4.861,5.482c9.288,9.217 19.036,15.425 29.603,18.964c13.638,4.578 27.151,5.035 27.151,5.035l19.63,-1.45c-0,-0 39.657,-4.424 64.036,-30.103c21.263,-22.398 27.838,-64.67 26.03,-86.499c-0.804,-9.635 -11.735,-29.041 -30.841,-35.793Z" style="fill:#05293d;fill-opacity:0.73;fill-rule:nonzero;"/><path d="M853.14,714.242l-85.817,99.519c1.348,3.908 2.896,7.792 4.645,11.574l96.224,-111.576c-4.989,0.06 -10.031,0.222 -15.052,0.483Z" style="fill:#f2f2f2;fill-rule:nonzero;"/><path d="M853.14,714.242l-85.817,99.519c1.348,3.908 2.896,7.792 4.645,11.574l96.224,-111.576c-4.989,0.06 -10.031,0.222 -15.052,0.483Z" style="fill:#05293d;fill-opacity:0.73;fill-rule:nonzero;"/><path d="M1072.47,708.696c-17.908,9.488 -25.868,30.289 -25.242,39.938c0.627,9.622 3.446,22.924 8.473,36.424l78.803,-91.392c-24.84,2.855 -49.004,8.128 -62.034,15.03Z" style="fill:#f2f2f2;fill-rule:nonzero;"/><path d="M1072.47,708.696c-17.908,9.488 -25.868,30.289 -25.242,39.938c0.627,9.622 3.446,22.924 8.473,36.424l78.803,-91.392c-24.84,2.855 -49.004,8.128 -62.034,15.03Z" style="fill:#05293d;fill-opacity:0.73;fill-rule:nonzero;"/><path d="M1163.98,691.454l-98.591,114.332c1.937,3.368 4.036,6.607 6.284,9.686l107.057,-124.141c-4.686,-0.089 -9.635,-0.047 -14.75,0.123Z" style="fill:#f2f2f2;fill-rule:nonzero;"/><path d="M1163.98,691.454l-98.591,114.332c1.937,3.368 4.036,6.607 6.284,9.686l107.057,-124.141c-4.686,-0.089 -9.635,-0.047 -14.75,0.123Z" style="fill:#05293d;fill-opacity:0.73;fill-rule:nonzero;"/><path d="M1242.02,732.813c-3.269,-17.072 -15.604,-32.528 -35.259,-38.266c-0.843,-0.246 -1.734,-0.475 -2.669,-0.693l-117.991,136.814c24.167,18.644 57.075,20.038 65.379,20.078c0.852,-0.34 1.561,-0.326 2.116,-0.028l19.488,-1.44c-0,0 13.296,-2.439 26.126,-8.973c9.924,-5.055 18.659,-12.627 26.481,-23.108c18.372,-24.595 19.943,-65.346 16.329,-84.384Z" style="fill:#f2f2f2;fill-rule:nonzero;"/><path d="M1242.02,732.813c-3.269,-17.072 -15.604,-32.528 -35.259,-38.266c-0.843,-0.246 -1.734,-0.475 -2.669,-0.693l-117.991,136.814c24.167,18.644 57.075,20.038 65.379,20.078c0.852,-0.34 1.561,-0.326 2.116,-0.028l19.488,-1.44c-0,0 13.296,-2.439 26.126,-8.973c9.924,-5.055 18.659,-12.627 26.481,-23.108c18.372,-24.595 19.943,-65.346 16.329,-84.384Z" style="fill:#05293d;fill-opacity:0.73;fill-rule:nonzero;"/><path d="M823.166,717.055l-61.977,71.87c1.229,7.819 3.211,16.363 6.134,24.836l85.817,-99.519c-10.361,0.539 -20.593,1.495 -29.974,2.813Z" style="fill:#f2f2f2;fill-rule:nonzero;"/><path d="M868.192,713.761l-96.224,111.576c3.119,6.741 6.917,13.116 11.42,18.709l111.659,-129.478c-8.382,-0.663 -17.511,-0.918 -26.855,-0.807Z" style="fill:#f2f2f2;fill-rule:nonzero;"/><path d="M1134.51,693.666l-78.804,91.392c2.619,7.023 5.858,14.084 9.681,20.728l98.591,-114.332c-9.49,0.317 -19.532,1.069 -29.468,2.212Z" style="fill:#f2f2f2;fill-rule:nonzero;"/><path d="M1178.73,691.333l-107.057,124.141c4.155,5.688 8.805,10.814 14.024,14.895c0.134,0.103 0.273,0.199 0.407,0.302l117.991,-136.814c-6.546,-1.515 -15.345,-2.327 -25.365,-2.524Z" style="fill:#f2f2f2;fill-rule:nonzero;"/><path d="M744.708,737.141c7.38,-1.238 14.445,-4.46 13.61,-6.632c-0.879,-2.271 -7.59,-2.957 -15.638,-1.662c-8.074,1.295 -14.352,4.44 -13.607,6.642c0.906,2.63 7.595,3.025 15.635,1.652Z" style="fill:#f2f2f2;fill-rule:nonzero;"/><path d="M1252.32,691.128c-8.185,-0.033 -14.895,2.051 -14.51,4.338c0.466,2.739 7.01,4.222 15.156,4.184c7.487,-0.04 14.973,-2.084 14.497,-4.358c-0.494,-2.374 -6.992,-4.137 -15.143,-4.164Z" style="fill:#f2f2f2;fill-rule:nonzero;"/><path d="M1121.07,679.729c-52.143,6.363 -96.469,33.292 -124.209,35.966c-28.245,2.725 -59.254,-17.017 -128.149,-17.316c-84.041,-0.355 -153.492,21.217 -153.492,21.217l5.178,32.046c0,-0 14.411,2.201 19.675,18.264c7.325,22.351 8.405,62.914 30.261,85.173c25.542,26.016 49.729,30.186 74.097,29.77c23.785,-0.42 76.912,-7.472 103.962,-42.929c10.275,-13.467 18.017,-31.298 23.223,-48.238c5.935,-19.33 9.124,-39.961 16.313,-46.315c2.636,-2.326 6.605,-1.966 11.108,-2.233c6.196,-0.371 11.504,-0.818 15.736,3.067c10.286,9.427 16.106,31.802 26.368,51.628c6.724,12.982 17.024,25.663 28.029,35.983c28.347,26.564 87.806,27.219 108.945,24.377c23.255,-3.136 48.905,-13.246 63.618,-35.714c7.153,-10.942 11.652,-24.192 14.128,-37.696c3.566,-19.521 3.49,-39.582 5.885,-54.002c3.172,-19.16 15.365,-20.877 15.365,-20.877l1.718,-33.959c-0,0.002 -71.845,-8.699 -157.759,1.788Zm-192.404,162.242c-24.381,25.676 -64.036,30.103 -64.036,30.103l-19.63,1.45c0,0 -13.513,-0.457 -27.151,-5.035c-10.567,-3.541 -20.315,-9.747 -29.603,-18.964c-1.717,-1.706 -3.318,-3.563 -4.861,-5.482c-4.504,-5.593 -8.298,-11.965 -11.42,-18.708c-1.749,-3.782 -3.297,-7.666 -4.645,-11.574c-2.923,-8.473 -4.905,-17.017 -6.134,-24.836c-1.237,-7.872 -1.707,-15.009 -1.483,-20.467c0.721,-17.367 10.642,-34.468 29.243,-43.033c7.625,-3.511 19.925,-6.358 34.214,-8.37c9.381,-1.32 19.614,-2.274 29.974,-2.813c5.022,-0.261 10.064,-0.423 15.053,-0.483c9.341,-0.108 18.473,0.146 26.852,0.807c11.518,0.906 21.612,2.572 28.811,5.113c19.106,6.753 30.037,26.158 30.841,35.794c1.813,21.828 -4.762,64.1 -26.025,86.498Zm-199.596,-106.485c-0.747,-2.202 5.533,-5.347 13.607,-6.642c8.048,-1.295 14.759,-0.606 15.638,1.663c0.837,2.171 -6.23,5.393 -13.611,6.631c-8.039,1.376 -14.728,0.981 -15.634,-1.652Zm523.889,-35.836c-8.146,0.038 -14.69,-1.445 -15.156,-4.184c-0.385,-2.287 6.322,-4.371 14.51,-4.338c8.151,0.027 14.649,1.79 15.143,4.164c0.476,2.274 -7.01,4.318 -14.497,4.358Zm-53.754,140.655c-12.83,6.534 -26.126,8.973 -26.126,8.973l-19.488,1.44c-0.552,-0.299 -1.264,-0.312 -2.116,0.028c-8.302,-0.04 -41.21,-1.435 -65.379,-20.078c-0.134,-0.103 -0.273,-0.198 -0.407,-0.302c-5.219,-4.081 -9.869,-9.204 -14.024,-14.894c-2.251,-3.081 -4.349,-6.318 -6.284,-9.686c-3.822,-6.644 -7.062,-13.703 -9.68,-20.728c-5.028,-13.503 -7.849,-26.802 -8.473,-36.424c-0.626,-9.649 7.334,-30.45 25.242,-39.938c13.03,-6.902 37.194,-12.175 62.037,-15.03c9.939,-1.143 19.981,-1.895 29.465,-2.212c5.115,-0.17 10.064,-0.212 14.75,-0.121c10.02,0.2 18.819,1.011 25.365,2.524c0.937,0.215 1.829,0.447 2.669,0.693c19.657,5.734 31.993,21.191 35.259,38.266c3.614,19.038 2.043,59.789 -16.329,84.383c-7.822,10.479 -16.557,18.053 -26.481,23.106Z" style="fill:#05293d;fill-rule:nonzero;"/></g></g></svg>