<?xml version="1.0" encoding="UTF-8" standalone="no"?><!DOCTYPE svg PUBLIC "-//W3C//DTD SVG 1.1//EN" "http://www.w3.org/Graphics/SVG/1.1/DTD/svg11.dtd"><svg width="100%" height="100%" viewBox="0 0 625 134" version="1.1" xmlns="http://www.w3.org/2000/svg" xmlns:xlink="http://www.w3.org/1999/xlink" xml:space="preserve" xmlns:serif="http://www.serif.com/" style="fill-rule:evenodd;clip-rule:evenodd;stroke-linejoin:round;stroke-miterlimit:2;"><g><path d="M409.102,27.186l1.739,1.691c-2.328,2.646 -4.326,5.566 -5.95,8.694c-0.899,2.613 -1.294,5.374 -1.164,8.135l-0,39.879c-0,5.53 0.467,9.024 1.403,10.481c0.623,1.273 1.887,2.116 3.302,2.201c1.215,-0.131 2.329,-0.74 3.095,-1.691l0.829,3.318l-11.836,9.3c-2.593,-1.408 -4.814,-3.416 -6.476,-5.854c-1.324,-3.058 -2.018,-6.351 -2.042,-9.683c-4.901,4.913 -10.59,8.973 -16.829,12.012c-5.423,2.38 -11.29,3.581 -17.212,3.525c-11.4,0 -20.147,-4.11 -26.241,-12.331c-4.575,-6.131 -6.983,-13.614 -6.843,-21.263c-0.042,-5.816 1.304,-11.558 3.924,-16.75c3.003,-5.679 7.014,-10.765 11.836,-15.01c4.453,-3.876 9.26,-7.326 14.357,-10.305c-3.458,0.96 -7.009,1.543 -10.592,1.739c-1.691,-0 -3.573,-0.096 -5.663,-0.288c-2.09,-0.191 -3.844,-0.287 -5.216,-0.287c-2.772,-0.143 -5.478,0.902 -7.434,2.872c-1.917,2.167 -2.898,5.008 -2.727,7.896c0.028,1.558 0.145,3.113 0.35,4.658l-2.313,-0c-0.397,-2.148 -0.621,-4.325 -0.669,-6.509c-0,-5.934 1.552,-10.65 4.657,-14.149c2.694,-3.302 6.73,-5.23 10.991,-5.248c1.131,-0.006 2.259,0.106 3.366,0.335c0.67,0.144 2.903,0.909 6.7,2.265c3.264,1.272 6.723,1.968 10.225,2.058c2.623,-0.013 5.217,-0.556 7.625,-1.595c1.603,-0.801 3.051,-1.881 4.275,-3.191l2.52,0l0,31.537c3.318,1.961 7.075,3.059 10.927,3.19c1.619,0.021 3.232,-0.2 4.786,-0.654c1.818,-0.627 3.557,-1.462 5.184,-2.488l0,-16.255l-6.381,-4.658l-6.38,7.003l-1.851,-1.739l13.559,-15.058l11.948,8.582l6.221,-6.365Zm-63.647,66.678c2.153,-2.101 3.829,-4.642 4.913,-7.449c0.952,-4.059 1.338,-8.23 1.148,-12.395l0,-16.653c-0.087,-2.829 0.036,-5.66 0.367,-8.471c0.351,-1.585 0.966,-3.1 1.819,-4.482c2.557,-4.07 5.466,-7.907 8.694,-11.469c-5.062,2.816 -9.825,6.141 -14.214,9.922c-7.834,7.202 -12.255,17.401 -12.155,28.043c-0.069,4.903 0.927,9.764 2.919,14.245c1.627,3.272 3.832,6.222 6.509,8.709Zm23.114,-64.11c-1.963,1.901 -3.501,4.195 -4.515,6.732c-0.845,3.847 -1.177,7.79 -0.989,11.724l0,26.018c0.083,2.145 -0.126,4.292 -0.622,6.381c-0.658,1.931 -1.706,3.706 -3.078,5.216c-3.54,3.681 -7.447,6.99 -11.661,9.874c2.318,1.65 4.865,2.951 7.561,3.86c2.712,0.802 5.531,1.184 8.359,1.133c1.656,-0.004 3.309,-0.137 4.945,-0.399l-0,-70.539Zm23.433,28.905c-1.751,0.922 -3.589,1.67 -5.487,2.233c-1.564,0.395 -3.173,0.582 -4.786,0.558c-3.718,-0.104 -7.364,-1.059 -10.656,-2.791l0,13.064c3.386,-1.613 7.067,-2.515 10.816,-2.648c3.52,0.121 6.97,1.026 10.097,2.648l0.016,-13.064Zm-0,15.808c-3.12,-1.705 -6.593,-2.666 -10.145,-2.807c-1.713,-0.014 -3.42,0.206 -5.073,0.654c-1.986,0.612 -3.896,1.447 -5.695,2.488l0,25.012c3.525,-0.715 6.956,-1.834 10.225,-3.333c3.765,-1.849 7.344,-4.056 10.688,-6.589l-0,-15.425Z" style="fill:#fff;fill-rule:nonzero;"/><path d="M443.175,28.813l0,1.468c-2.647,1.189 -4.872,3.152 -6.38,5.631c-1.404,3.183 -2.028,6.656 -1.819,10.129l0,49.849l6.381,4.786l2.472,-2.026l1.404,2.026l-11.166,8.518c-2.374,-2.17 -4.925,-4.139 -7.625,-5.886c-2.113,-1.145 -4.358,-2.028 -6.684,-2.632l0,-1.244c1.006,-0.581 1.846,-1.411 2.441,-2.409c0.617,-1.05 1.029,-2.209 1.212,-3.414c0,-0.446 0.128,-2.696 0.16,-6.731l-0,-40.055c0.064,-2.373 -0.064,-4.747 -0.383,-7.099c-0.282,-1.361 -0.824,-2.656 -1.595,-3.812c-1.098,-1.55 -2.427,-2.922 -3.941,-4.068l0.894,-1.117c3.548,1.07 6.719,3.129 9.14,5.934c2.136,-2.434 4.678,-4.48 7.513,-6.045c2.504,-1.152 5.221,-1.766 7.976,-1.803Z" style="fill:#fff;fill-rule:nonzero;"/><path d="M449.556,55.564l15.633,-19.349l1.595,-0l-0.558,15.489l11.277,-0l0,6.381l-11.198,-0l0,37.741l6.285,4.658l3.589,-2.807l1.404,1.595l-12.346,9.874c-3.934,-4.125 -8.887,-7.141 -14.357,-8.741l-0,-1.133c1.272,-0.765 2.305,-1.87 2.983,-3.19c0.73,-1.918 1.055,-3.965 0.957,-6.014l0,-32.031l-5.264,-0l-0,-2.473Z" style="fill:#e1071b;fill-rule:nonzero;"/><path d="M514.543,49.391l8.471,10.161l-8.471,7.513l-7.066,-8.917l-5.551,5.105l-0,32.701l6.38,4.594l5.791,-4.594l1.276,1.787l-14.357,11.501c-2.371,-2.207 -4.952,-4.178 -7.704,-5.886c-2.139,-1.227 -4.429,-2.171 -6.812,-2.808l0,-1.228c1.358,-0.863 2.46,-2.075 3.191,-3.509c0.645,-2.188 0.904,-4.471 0.765,-6.748l0,-22.955c0.18,-1.967 -0.161,-3.948 -0.989,-5.742c-0.425,-0.814 -1.239,-1.356 -2.153,-1.436c-0.862,0 -2.042,0.75 -3.542,2.249l-1.339,-1.595l11.836,-10.161c2.496,1.76 4.689,3.915 6.492,6.381c0.829,1.406 1.223,3.027 1.133,4.657l12.649,-11.07Z" style="fill:#fff;fill-rule:nonzero;"/><path d="M568.875,51.816l2.026,0.781c-1.559,2.245 -2.85,4.665 -3.844,7.21c-0.612,2.195 -0.887,4.471 -0.814,6.748l0,23.928c0,3.956 0.303,6.38 0.925,7.433c0.418,0.857 1.266,1.425 2.218,1.484c0.486,-0.01 0.965,-0.124 1.403,-0.335c0.303,-0.192 1.181,-0.862 2.632,-2.026l1.229,1.85l-12.506,10.321c-2.28,-1.636 -4.22,-3.7 -5.711,-6.078c-1.091,-2.323 -1.637,-4.866 -1.595,-7.433l-17.037,13.463c-6.381,-5.232 -9.571,-10.39 -9.571,-15.473c-0.021,-3.304 0.688,-6.572 2.074,-9.571c2.537,-4.982 5.723,-9.606 9.475,-13.751l-6.732,-14.356l0.782,-1.595c1.452,0.143 2.536,0.223 3.19,0.223c4.46,-0.017 8.706,-1.94 11.661,-5.28c2.815,1.649 5.82,2.951 8.949,3.876c2.401,0.817 4.902,1.306 7.434,1.452c0.623,0.046 1.247,-0.098 1.786,-0.415c0.784,-0.723 1.465,-1.549 2.026,-2.456Zm-14.133,10.703l-19.142,-5.886l6.843,14.468l12.331,5.775l-0.032,-14.357Zm-0,16.654l-13.559,-6.381c-1.907,3.725 -2.995,7.816 -3.19,11.996c-0,6.062 2.749,11.054 8.247,14.979l8.454,-6.844l0.048,-13.75Z" style="fill:#fff;fill-rule:nonzero;"/><path d="M609.425,70.208l12.952,6.779l0,23.609c-2.953,0.252 -5.838,1.03 -8.518,2.297c-3.159,1.685 -6.069,3.8 -8.646,6.285c-2.262,-1.405 -4.675,-2.55 -7.194,-3.414c-2.097,-0.646 -4.281,-0.969 -6.476,-0.957c-3.394,-0.04 -6.701,1.087 -9.364,3.191c-0.608,0.592 -1.371,1.002 -2.201,1.18c-0.476,-0.035 -0.919,-0.259 -1.229,-0.622c-0.367,-0.306 -0.592,-0.751 -0.622,-1.228c0,-0.447 0.399,-1.037 1.181,-1.787c0.446,-0.462 1.212,-1.308 2.297,-2.584l5.104,-6.381l7.242,-9.571l-12.283,-6.604l0,-20.913c3.196,-0.896 6.247,-2.244 9.061,-4.004c2.406,-1.689 4.532,-3.745 6.301,-6.093c3.763,1.653 7.62,3.086 11.549,4.291c1.96,0.537 3.982,0.815 6.014,0.829c1.704,0.095 3.391,-0.388 4.785,-1.371c1.002,-0.635 1.647,-1.706 1.739,-2.888c-0.064,-0.799 -0.472,-1.533 -1.116,-2.01c-1.234,-0.905 -2.028,-2.291 -2.186,-3.812c-0.054,-1.014 0.29,-2.01 0.957,-2.776c0.52,-0.64 1.297,-1.02 2.122,-1.037c1.111,0.023 2.155,0.545 2.839,1.42c0.878,1.058 1.327,2.408 1.26,3.781c0.007,1.648 -0.336,3.279 -1.004,4.785c-1.016,2.092 -2.275,4.057 -3.749,5.855l-10.815,13.75Zm-6.732,8.997l-13.511,18.121c1.501,-0.52 3.036,-0.936 4.594,-1.244c1.273,-0.241 2.565,-0.369 3.86,-0.383c4.78,0.146 9.427,1.621 13.416,4.259l-0,-16.287l-8.359,-4.466Zm-9.651,-5.105l7.689,3.988l12.219,-16.271c-2.11,0.653 -4.3,1.013 -6.508,1.069c-4.839,-0.081 -9.53,-1.69 -13.4,-4.594l0,15.808Z" style="fill:#fff;fill-rule:nonzero;"/></g><g><path d="M57.671,30.608l-0.152,10.264l18.688,-0l-0.084,63.948l13.522,0.084l-0,-64.032l20.039,-0.085l0.084,-10.179" style="fill:#fff;fill-rule:nonzero;"/><path d="M162.777,30.692l-0.338,74.297l13.286,-0.085l0.169,-54.426l30.387,54.089l18.367,0.253l0.084,-74.212l-13.539,-0l0.254,52.249l-30.641,-52.334" style="fill:#fff;fill-rule:nonzero;"/><path d="M263.544,60.995l25.204,0.084l-0,10.096l-25.204,0.084l-0,21.71l26.875,0.169l0.085,11.851l-40.567,-0.085l0.084,-74.212l40.314,0l0.169,10.095l-27.214,0.169" style="fill:#fff;fill-rule:nonzero;"/><path d="M125.13,49.296l15.025,-0l0,55.608l-15.193,0" style="fill:#e1071b;fill-rule:nonzero;"/><ellipse cx="132.643" cy="33.478" rx="9.437" ry="9.386" style="fill:#e1071b;"/><path d="M40.722,31.03c-3.377,-1.182 -16.105,-5.217 -28.21,1.08c-3.376,1.688 -9.47,4.643 -11.682,12.104c-2.096,7.163 -0.155,14.925 5.065,20.258c4.49,4.356 7.158,5.723 15.869,8.593c8.711,2.87 12.863,7.462 10.652,13.725c-1.536,4.254 -6.871,7.563 -12.189,8.019c-8.896,0.76 -18.57,-3.511 -18.57,-3.511l0.085,13.032c10.77,4.086 25.457,0.726 27.011,0.085c5.959,-2.414 14.265,-6.213 17.371,-15.7c2.299,-6.801 0.623,-14.344 -4.339,-19.533c-4.659,-5.064 -12.053,-7.326 -14.451,-8.103c-4.423,-1.435 -8.66,-3.511 -10.686,-5.841c-2.802,-3.207 -2.025,-8.812 -0.084,-12.104c3.056,-5.166 15.194,-4.845 23.955,-1.08" style="fill:#fff;fill-rule:nonzero;"/></g></svg>