<svg id="Ebene_1" data-name="Ebene 1" xmlns="http://www.w3.org/2000/svg" viewBox="0 0 190.79 111.02"><defs><style>.cls-1{fill:#fff;}.cls-2{fill:#e1071b;}</style></defs><path class="cls-1" d="M72.64,72.39l1.09,1.06A27.3,27.3,0,0,0,70,78.9,13.7,13.7,0,0,0,69.27,84v25q0,5.2.88,6.57a2.47,2.47,0,0,0,2.07,1.38,2.89,2.89,0,0,0,1.94-1.06l.52,2.08-7.42,5.83a11.63,11.63,0,0,1-4.06-3.67,15.56,15.56,0,0,1-1.28-6.07,39.05,39.05,0,0,1-10.55,7.53,26.23,26.23,0,0,1-10.79,2.21q-10.72,0-16.45-7.73a21.63,21.63,0,0,1-4.29-13.33A22.94,22.94,0,0,1,22.3,92.24a33.24,33.24,0,0,1,7.42-9.41,59.24,59.24,0,0,1,9-6.46,31.16,31.16,0,0,1-6.64,1.09c-1.06,0-2.24-.06-3.55-.18s-2.41-.18-3.27-.18a6.12,6.12,0,0,0-4.66,1.8,6.86,6.86,0,0,0-1.71,4.95,25.66,25.66,0,0,0,.22,2.92H17.66a25.53,25.53,0,0,1-.42-4.08q0-5.58,2.92-8.87a8.94,8.94,0,0,1,6.89-3.29,10.13,10.13,0,0,1,2.11.21c.42.09,1.82.57,4.2,1.42a19,19,0,0,0,6.41,1.29,12.21,12.21,0,0,0,4.78-1,9.43,9.43,0,0,0,2.68-2h1.58V90.22a14.43,14.43,0,0,0,6.85,2,10.24,10.24,0,0,0,3-.41,15.67,15.67,0,0,0,3.25-1.56V80.06l-4-2.92-4,4.39-1.16-1.09L61.25,71l7.49,5.38Zm-39.9,41.8a13.14,13.14,0,0,0,3.08-4.67,28.38,28.38,0,0,0,.72-7.77V91.31A35.86,35.86,0,0,1,36.77,86a9.1,9.1,0,0,1,1.14-2.81A51.63,51.63,0,0,1,43.36,76a53.54,53.54,0,0,0-8.91,6.22,23.58,23.58,0,0,0-7.62,17.58,21.25,21.25,0,0,0,1.83,8.93A19,19,0,0,0,32.74,114.19ZM47.23,74a12.14,12.14,0,0,0-2.83,4.22,28,28,0,0,0-.62,7.35v16.31a14.85,14.85,0,0,1-.39,4,9.34,9.34,0,0,1-1.93,3.27,46.84,46.84,0,0,1-7.31,6.19,18.2,18.2,0,0,0,4.74,2.42,17.39,17.39,0,0,0,5.24.71,19.89,19.89,0,0,0,3.1-.25ZM61.92,92.12a18.92,18.92,0,0,1-3.44,1.4,11.57,11.57,0,0,1-3,.35,15.26,15.26,0,0,1-6.68-1.75v8.19a17.17,17.17,0,0,1,6.78-1.66,14.85,14.85,0,0,1,6.33,1.66Zm0,9.91a14.46,14.46,0,0,0-6.36-1.76,11.83,11.83,0,0,0-3.18.41,17.28,17.28,0,0,0-3.57,1.56v15.68a29.39,29.39,0,0,0,6.41-2.09,41.09,41.09,0,0,0,6.7-4.13Z" transform="translate(-17.24 -12.77)"/><path class="cls-1" d="M94,73.41v.92A9,9,0,0,0,90,77.86a13.7,13.7,0,0,0-1.14,6.35v31.25l4,3,1.55-1.27.88,1.27-7,5.34a36.34,36.34,0,0,0-4.78-3.69,18.62,18.62,0,0,0-4.19-1.65v-.78a4.26,4.26,0,0,0,1.53-1.51,6,6,0,0,0,.76-2.14c0-.28.08-1.69.1-4.22V84.7a27.5,27.5,0,0,0-.24-4.45,6.79,6.79,0,0,0-1-2.39A11.62,11.62,0,0,0,78,75.31l.56-.7a12.23,12.23,0,0,1,5.73,3.72A17.56,17.56,0,0,1,89,74.54,12.36,12.36,0,0,1,94,73.41Z" transform="translate(-17.24 -12.77)"/><path class="cls-2" d="M98,90.18l9.8-12.13h1l-.35,9.71h7.07v4H108.5v23.66l3.94,2.92,2.25-1.76.88,1-7.74,6.19a20.32,20.32,0,0,0-9-5.48v-.71a5,5,0,0,0,1.87-2,9.34,9.34,0,0,0,.6-3.77V91.73H98Z" transform="translate(-17.24 -12.77)"/><path class="cls-1" d="M138.74,86.31l5.31,6.37-5.31,4.71-4.43-5.59L130.83,95v20.5l4,2.88,3.63-2.88.8,1.12-9,7.21a31.38,31.38,0,0,0-4.83-3.69,17.83,17.83,0,0,0-4.27-1.76v-.77a5.64,5.64,0,0,0,2-2.2,12.31,12.31,0,0,0,.48-4.23V96.79a7.06,7.06,0,0,0-.62-3.6,1.69,1.69,0,0,0-1.35-.9q-.81,0-2.22,1.41l-.84-1,7.42-6.37a17.62,17.62,0,0,1,4.07,4,5.19,5.19,0,0,1,.71,2.92Z" transform="translate(-17.24 -12.77)"/><path class="cls-1" d="M172.8,87.83l1.27.49a21.88,21.88,0,0,0-2.41,4.52,14.07,14.07,0,0,0-.51,4.23v15c0,2.48.19,4,.58,4.66a1.66,1.66,0,0,0,1.39.93,2.13,2.13,0,0,0,.88-.21c.19-.12.74-.54,1.65-1.27l.77,1.16-7.84,6.47A13.55,13.55,0,0,1,165,120a10.56,10.56,0,0,1-1-4.66l-10.68,8.44q-6-4.92-6-9.7a14.09,14.09,0,0,1,1.3-6,39.66,39.66,0,0,1,5.94-8.62l-4.22-9,.49-1c.91.09,1.59.14,2,.14a9.81,9.81,0,0,0,7.31-3.31,25.29,25.29,0,0,0,5.61,2.43,17.62,17.62,0,0,0,4.66.91,1.93,1.93,0,0,0,1.12-.26A7.37,7.37,0,0,0,172.8,87.83Zm-8.86,6.71-12-3.69,4.29,9.07,7.73,3.62Zm0,10.44-8.5-4a18.39,18.39,0,0,0-2,7.52q0,5.7,5.17,9.39l5.3-4.29Z" transform="translate(-17.24 -12.77)"/><path class="cls-1" d="M198.22,99.36l8.12,4.25v14.8a15.58,15.58,0,0,0-5.34,1.44,24.25,24.25,0,0,0-5.42,3.94,22.17,22.17,0,0,0-4.51-2.14,13.52,13.52,0,0,0-4.06-.6,9.29,9.29,0,0,0-5.87,2,2.83,2.83,0,0,1-1.38.74,1.12,1.12,0,0,1-.77-.39,1.09,1.09,0,0,1-.39-.77c0-.28.25-.65.74-1.12.28-.29.76-.82,1.44-1.62l3.2-4,4.54-6-7.7-4.14V92.64a21.84,21.84,0,0,0,5.68-2.51,17.64,17.64,0,0,0,3.95-3.82A66.5,66.5,0,0,0,197.69,89a14.66,14.66,0,0,0,3.77.52,4.75,4.75,0,0,0,3-.86,2.36,2.36,0,0,0,1.09-1.81,1.74,1.74,0,0,0-.7-1.26,3.4,3.4,0,0,1-1.37-2.39,2.45,2.45,0,0,1,.6-1.74,1.76,1.76,0,0,1,1.33-.65,2.32,2.32,0,0,1,1.78.89,3.45,3.45,0,0,1,.79,2.37,7.33,7.33,0,0,1-.63,3A18.61,18.61,0,0,1,205,90.74ZM194,105l-8.47,11.36a21.62,21.62,0,0,1,2.88-.78,13.82,13.82,0,0,1,2.42-.24,16.14,16.14,0,0,1,8.41,2.67V107.8Zm-6.05-3.2,4.82,2.5,7.66-10.2a15.11,15.11,0,0,1-4.08.67,14.4,14.4,0,0,1-8.4-2.88Z" transform="translate(-17.24 -12.77)"/><polyline class="cls-1" points="44.72 3.86 44.63 9.94 55.7 9.94 55.65 47.82 63.66 47.87 63.66 9.94 75.53 9.89 75.58 3.86"/><polyline class="cls-1" points="106.98 3.91 106.78 47.92 114.65 47.87 114.75 15.63 132.75 47.67 143.63 47.82 143.68 3.86 135.66 3.86 135.81 34.81 117.66 3.81"/><polyline class="cls-1" points="166.67 21.86 181.6 21.91 181.6 27.89 166.67 27.94 166.67 40.8 182.59 40.9 182.64 47.92 158.61 47.87 158.66 3.91 182.54 3.91 182.64 9.89 166.52 9.99"/><polyline class="cls-2" points="84.68 14.93 93.58 14.93 93.58 47.87 84.58 47.87"/><ellipse class="cls-2" cx="89.13" cy="5.56" rx="5.59" ry="5.56"/><path class="cls-1" d="M51.92,16.88c-2-.7-9.54-3.09-16.71.64-2,1-5.61,2.75-6.92,7.17a12.24,12.24,0,0,0,3,12c2.66,2.58,4.24,3.39,9.4,5.09S48.31,46.2,47,49.91c-.91,2.52-4.07,4.48-7.22,4.75-5.27.45-11-2.08-11-2.08l.05,7.72c6.38,2.42,15.08.43,16,.05,3.53-1.43,8.45-3.68,10.29-9.3a11.44,11.44,0,0,0-2.57-11.57c-2.76-3-7.14-4.34-8.56-4.8-2.62-.85-5.13-2.08-6.33-3.46-1.66-1.9-1.2-5.22-.05-7.17,1.81-3.06,9-2.87,14.19-.64" transform="translate(-17.24 -12.77)"/></svg>